{"glyphs":{"0":{"ha":826,"x_min":0,"x_max":0,"o":"m 413 899 b 50 451 194 899 50 707 b 413 -10 50 196 194 -10 b 776 451 632 -10 776 196 b 413 899 776 707 632 899 z m 413 67 b 194 451 258 67 194 206 b 413 822 194 696 258 822 b 632 451 567 822 632 696 b 413 67 632 206 567 67 z "},"1":{"ha":424,"x_min":0,"x_max":0,"o":"m 313 97 l 313 893 l 308 893 l 42 733 l 60 700 l 179 743 l 179 97 b 88 36 179 47 150 36 l 88 0 l 389 0 l 389 36 b 313 97 338 36 313 47 z "},"2":{"ha":760,"x_min":0,"x_max":0,"o":"m 681 268 b 593 100 663 160 643 101 l 186 81 b 319 253 199 158 253 208 l 513 382 b 681 664 622 456 681 539 b 390 899 681 775 588 899 b 74 617 204 899 74 782 b 96 494 74 575 81 540 l 264 508 b 224 664 240 558 224 604 b 388 818 224 754 283 818 b 536 664 474 818 536 764 b 413 453 536 574 510 517 l 243 340 b 50 0 142 272 61 139 l 674 0 l 686 81 l 715 263 z "},"3":{"ha":747,"x_min":0,"x_max":0,"o":"m 488 481 b 668 682 617 508 668 572 b 388 899 668 818 568 899 b 81 669 197 899 81 797 b 97 572 81 635 83 604 l 258 585 b 231 685 242 613 231 638 b 388 818 231 771 297 818 b 524 692 490 818 524 760 b 361 526 524 618 488 526 l 349 526 l 349 439 l 361 439 b 557 253 496 439 557 349 b 383 71 557 139 493 71 b 201 231 272 71 201 135 b 225 357 201 282 213 321 l 64 371 b 53 260 60 344 53 300 b 385 -10 53 93 182 -10 b 701 240 574 -10 701 92 b 488 481 701 368 618 457 z "},"4":{"ha":743,"x_min":0,"x_max":0,"o":"m 358 0 l 678 0 l 678 36 b 601 97 626 36 601 47 l 601 210 l 713 258 l 713 294 l 601 294 l 601 788 b 678 849 601 838 626 849 l 678 885 l 494 885 l 1 219 l 1 206 l 468 206 l 468 97 b 358 36 468 47 433 36 z m 179 294 l 468 758 l 468 294 z "},"5":{"ha":756,"x_min":0,"x_max":0,"o":"m 403 613 b 188 524 311 613 231 579 l 211 779 l 564 779 b 608 676 614 779 619 750 l 644 671 l 664 796 l 678 885 l 124 885 l 104 444 l 168 439 b 349 532 201 492 247 532 b 561 301 461 532 561 467 b 375 71 561 146 499 71 b 217 226 281 71 217 139 b 249 360 217 276 228 322 l 82 375 b 67 263 71 335 67 299 b 375 -10 67 117 186 -10 b 706 301 565 -10 706 96 b 403 613 706 494 578 613 z "},"6":{"ha":736,"x_min":0,"x_max":0,"o":"m 393 818 b 199 425 268 818 203 724 b 422 565 239 506 321 565 b 683 294 564 565 683 475 b 383 -10 683 119 578 -10 b 58 403 175 -10 58 119 b 393 899 58 722 178 899 b 667 683 572 899 667 808 b 665 654 667 674 667 664 l 517 667 b 521 711 518 678 521 694 b 393 818 521 781 460 818 z m 199 265 b 369 71 199 153 246 71 b 539 283 493 71 539 176 b 382 483 539 403 485 483 b 199 265 254 483 199 385 z "},"7":{"ha":613,"x_min":0,"x_max":0,"o":"m 7 885 l 17 796 l 29 669 l 65 674 b 115 779 57 749 65 779 l 501 779 b 169 0 350 582 199 421 l 311 0 b 611 856 325 410 451 651 l 611 885 z "},"8":{"ha":722,"x_min":0,"x_max":0,"o":"m 56 244 b 361 -10 56 71 192 -10 b 667 244 529 -10 667 71 b 449 479 667 371 586 454 b 635 675 575 508 635 572 b 361 899 635 783 554 899 b 88 675 167 899 88 783 b 272 479 88 574 147 510 b 56 244 146 456 56 371 z m 200 250 b 356 482 200 368 256 436 b 231 689 276 528 231 585 b 361 832 231 776 269 832 b 490 689 453 832 490 776 b 367 482 490 586 444 528 b 522 250 479 436 522 368 b 361 71 522 142 471 71 b 200 250 250 71 200 142 z "},"9":{"ha":736,"x_min":0,"x_max":0,"o":"m 343 71 b 538 464 468 71 533 165 b 314 324 497 383 415 324 b 53 594 172 324 53 414 b 353 899 53 769 158 899 b 678 486 561 899 678 769 b 343 -10 678 167 558 -10 b 69 206 164 -10 69 81 b 71 235 69 215 69 225 l 219 222 b 215 178 218 211 215 194 b 343 71 215 108 276 71 z m 538 624 b 367 818 538 736 490 818 b 197 606 243 818 197 713 b 354 406 197 486 251 406 b 538 624 482 406 538 504 z "}," ":{"ha":288,"x_min":0,"x_max":0,"o":""},"A":{"ha":854,"x_min":0,"x_max":0,"o":"m 743 93 l 518 885 l 218 885 l 218 849 b 314 792 301 849 328 840 l 114 93 b 11 36 100 44 63 36 l 11 0 l 310 0 l 310 36 b 214 93 226 36 200 44 l 260 256 l 558 256 l 604 93 b 508 36 618 44 592 36 l 508 0 l 846 0 l 846 36 b 743 93 794 36 757 44 z m 282 333 l 410 779 l 536 333 z "},"Á":{"ha":854,"x_min":0,"x_max":0,"o":"m 551 1069 l 476 1156 b 314 965 443 1078 404 1014 l 318 951 b 551 1069 422 957 508 1008 z m 743 93 l 518 885 l 218 885 l 218 849 b 314 792 301 849 328 840 l 114 93 b 11 36 100 44 63 36 l 11 0 l 310 0 l 310 36 b 214 93 226 36 200 44 l 260 256 l 558 256 l 604 93 b 508 36 618 44 592 36 l 508 0 l 846 0 l 846 36 b 743 93 794 36 757 44 z m 282 333 l 410 779 l 536 333 z "},"Ă":{"ha":854,"x_min":0,"x_max":0,"o":"m 429 951 b 565 1101 503 951 569 992 l 458 1101 b 429 989 481 1028 469 989 b 399 1101 386 989 376 1028 l 292 1101 b 429 951 288 1001 354 951 z m 743 93 l 518 885 l 218 885 l 218 849 b 314 792 301 849 328 840 l 114 93 b 11 36 100 44 63 36 l 11 0 l 310 0 l 310 36 b 214 93 226 36 200 44 l 260 256 l 558 256 l 604 93 b 508 36 618 44 592 36 l 508 0 l 846 0 l 846 36 b 743 93 794 36 757 44 z m 282 333 l 410 779 l 536 333 z "},"Â":{"ha":854,"x_min":0,"x_max":0,"o":"m 429 1029 l 481 950 l 597 950 l 460 1100 l 399 1100 l 261 950 l 378 950 z m 743 93 l 518 885 l 218 885 l 218 849 b 314 792 301 849 328 840 l 114 93 b 11 36 100 44 63 36 l 11 0 l 310 0 l 310 36 b 214 93 226 36 200 44 l 260 256 l 558 256 l 604 93 b 508 36 618 44 592 36 l 508 0 l 846 0 l 846 36 b 743 93 794 36 757 44 z m 282 333 l 410 779 l 536 333 z "},"Ä":{"ha":854,"x_min":0,"x_max":0,"o":"m 413 1040 l 313 1139 l 214 1040 l 313 940 z m 644 1040 l 544 1139 l 446 1040 l 544 940 z m 743 93 l 518 885 l 218 885 l 218 849 b 314 792 301 849 328 840 l 114 93 b 11 36 100 44 63 36 l 11 0 l 310 0 l 310 36 b 214 93 226 36 200 44 l 260 256 l 558 256 l 604 93 b 508 36 618 44 592 36 l 508 0 l 846 0 l 846 36 b 743 93 794 36 757 44 z m 282 333 l 410 779 l 536 333 z "},"À":{"ha":854,"x_min":0,"x_max":0,"o":"m 536 951 l 540 965 b 378 1156 450 1014 411 1078 l 303 1069 b 536 951 346 1008 432 957 z m 743 93 l 518 885 l 218 885 l 218 849 b 314 792 301 849 328 840 l 114 93 b 11 36 100 44 63 36 l 11 0 l 310 0 l 310 36 b 214 93 226 36 200 44 l 260 256 l 558 256 l 604 93 b 508 36 618 44 592 36 l 508 0 l 846 0 l 846 36 b 743 93 794 36 757 44 z m 282 333 l 410 779 l 536 333 z "},"Ā":{"ha":854,"x_min":0,"x_max":0,"o":"m 635 1049 l 222 1049 l 222 994 l 635 994 z m 743 93 l 518 885 l 218 885 l 218 849 b 314 792 301 849 328 840 l 114 93 b 11 36 100 44 63 36 l 11 0 l 310 0 l 310 36 b 214 93 226 36 200 44 l 260 256 l 558 256 l 604 93 b 508 36 618 44 592 36 l 508 0 l 846 0 l 846 36 b 743 93 794 36 757 44 z m 282 333 l 410 779 l 536 333 z "},"Ą":{"ha":854,"x_min":0,"x_max":0,"o":"m 703 0 l 846 0 l 846 36 b 743 93 794 36 757 44 l 518 885 l 218 885 l 218 849 b 314 792 301 849 328 840 l 114 93 b 11 36 100 44 63 36 l 11 0 l 310 0 l 310 36 b 214 93 226 36 200 44 l 260 256 l 558 256 l 604 93 b 508 36 618 44 592 36 l 508 0 l 640 0 b 531 -156 579 -39 531 -94 b 668 -268 531 -224 592 -268 b 771 -239 707 -268 739 -257 l 731 -149 b 660 -179 708 -168 689 -179 b 607 -126 622 -179 607 -156 b 703 0 607 -82 651 -39 z m 282 333 l 410 779 l 536 333 z "},"Å":{"ha":854,"x_min":0,"x_max":0,"o":"m 429 946 b 510 1026 474 946 510 982 b 429 1107 510 1071 474 1107 b 349 1026 385 1107 349 1071 b 429 946 349 982 385 946 z m 429 1051 b 454 1026 443 1051 454 1040 b 429 1001 454 1013 443 1001 b 404 1026 415 1001 404 1013 b 429 1051 404 1040 415 1051 z m 743 93 l 518 885 l 218 885 l 218 849 b 314 792 301 849 328 840 l 114 93 b 11 36 100 44 63 36 l 11 0 l 310 0 l 310 36 b 214 93 226 36 200 44 l 260 256 l 558 256 l 604 93 b 508 36 618 44 592 36 l 508 0 l 846 0 l 846 36 b 743 93 794 36 757 44 z m 282 333 l 410 779 l 536 333 z "},"Ã":{"ha":854,"x_min":0,"x_max":0,"o":"m 333 986 b 482 958 393 986 414 958 b 633 1029 528 958 588 986 l 617 1046 b 528 1019 594 1036 568 1019 b 376 1047 468 1019 446 1047 b 228 961 332 1047 274 1018 l 243 950 b 333 986 267 969 293 986 z m 743 93 l 518 885 l 218 885 l 218 849 b 314 792 301 849 328 840 l 114 93 b 11 36 100 44 63 36 l 11 0 l 310 0 l 310 36 b 214 93 226 36 200 44 l 260 256 l 558 256 l 604 93 b 508 36 618 44 592 36 l 508 0 l 846 0 l 846 36 b 743 93 794 36 757 44 z m 282 333 l 410 779 l 536 333 z "},"Æ":{"ha":1374,"x_min":0,"x_max":0,"o":"m 1308 221 b 1213 88 1286 136 1263 88 l 822 88 l 822 421 l 1092 421 b 1153 357 1142 421 1153 400 l 1189 357 l 1189 561 l 1153 561 b 1092 497 1153 518 1142 497 l 822 497 l 822 797 l 1214 797 b 1296 665 1264 797 1282 751 l 1331 671 l 1308 817 l 1297 885 l 526 885 l 526 849 b 600 800 610 849 625 844 l 194 85 b 69 36 169 40 121 36 l 69 0 l 363 0 l 363 36 b 289 85 279 36 264 40 l 386 256 l 683 256 l 683 97 b 561 36 683 47 644 36 l 561 0 l 1286 0 l 1304 68 l 1343 211 z m 431 333 l 683 779 l 683 333 z "},"B":{"ha":793,"x_min":0,"x_max":0,"o":"m 508 488 b 717 679 625 503 717 542 b 436 885 717 810 618 885 l 56 885 l 56 849 b 132 788 107 849 132 838 l 132 97 b 56 36 132 47 107 36 l 56 0 l 460 0 b 765 250 661 0 765 111 b 508 488 765 444 626 476 z m 403 807 b 572 660 540 807 572 754 b 403 513 572 572 518 513 l 271 513 l 271 807 z m 426 78 l 271 78 l 271 438 l 389 438 b 621 260 547 438 621 383 b 426 78 621 138 560 78 z "},"C":{"ha":828,"x_min":0,"x_max":0,"o":"m 485 94 b 192 456 304 94 192 232 b 458 822 192 739 326 822 b 628 654 556 822 628 775 b 611 538 628 615 622 578 l 768 522 l 768 550 b 442 899 768 724 711 899 b 53 456 200 899 53 724 b 443 -10 53 167 192 -10 b 775 264 697 -10 757 151 l 740 271 b 485 94 718 189 643 94 z "},"Ć":{"ha":828,"x_min":0,"x_max":0,"o":"m 543 1069 l 468 1156 b 306 965 435 1078 396 1014 l 310 951 b 543 1069 414 957 500 1008 z m 485 94 b 192 456 304 94 192 232 b 458 822 192 739 326 822 b 628 654 556 822 628 775 b 611 538 628 615 622 578 l 768 522 l 768 550 b 442 899 768 724 711 899 b 53 456 200 899 53 724 b 443 -10 53 167 192 -10 b 775 264 697 -10 757 151 l 740 271 b 485 94 718 189 643 94 z "},"Č":{"ha":828,"x_min":0,"x_max":0,"o":"m 253 1085 l 390 935 l 451 935 l 589 1085 l 472 1085 l 421 1006 l 369 1085 z m 485 94 b 192 456 304 94 192 232 b 458 822 192 739 326 822 b 628 654 556 822 628 775 b 611 538 628 615 622 578 l 768 522 l 768 550 b 442 899 768 724 711 899 b 53 456 200 899 53 724 b 443 -10 53 167 192 -10 b 775 264 697 -10 757 151 l 740 271 b 485 94 718 189 643 94 z "},"Ç":{"ha":828,"x_min":0,"x_max":0,"o":"m 775 264 l 740 271 b 485 94 718 189 643 94 b 192 456 304 94 192 232 b 458 822 192 739 326 822 b 628 654 556 822 628 775 b 611 538 628 615 622 578 l 768 522 l 768 550 b 442 899 768 724 711 899 b 53 456 200 899 53 724 b 379 -6 53 193 168 22 l 333 -107 b 381 -103 349 -104 365 -103 b 458 -175 431 -103 458 -129 b 411 -226 458 -194 449 -226 b 371 -192 389 -226 371 -212 b 382 -153 371 -178 375 -165 l 308 -140 b 300 -187 301 -157 300 -174 b 410 -278 300 -236 342 -278 b 528 -165 482 -278 528 -235 b 438 -74 528 -100 482 -74 b 406 -78 425 -74 414 -75 l 464 -10 b 775 264 700 0 757 154 z "},"Ċ":{"ha":828,"x_min":0,"x_max":0,"o":"m 321 1085 l 419 985 l 519 1085 l 419 1183 z m 485 94 b 192 456 304 94 192 232 b 458 822 192 739 326 822 b 628 654 556 822 628 775 b 611 538 628 615 622 578 l 768 522 l 768 550 b 442 899 768 724 711 899 b 53 456 200 899 53 724 b 443 -10 53 167 192 -10 b 775 264 697 -10 757 151 l 740 271 b 485 94 718 189 643 94 z "},"D":{"ha":863,"x_min":0,"x_max":0,"o":"m 349 885 l 56 885 l 56 849 b 132 788 107 849 132 838 l 132 97 b 56 36 132 47 107 36 l 56 0 l 349 0 b 810 446 636 0 810 151 b 349 885 810 740 636 885 z m 332 78 l 271 78 l 271 807 l 332 807 b 665 446 556 807 665 704 b 332 78 665 188 556 78 z "},"Ð":{"ha":863,"x_min":0,"x_max":0,"o":"m 349 885 l 56 885 l 56 849 b 132 788 107 849 132 838 l 132 469 l 64 469 l 64 415 l 132 415 l 132 97 b 56 36 132 47 107 36 l 56 0 l 349 0 b 810 446 636 0 810 151 b 349 885 810 740 636 885 z m 332 78 l 271 78 l 271 415 l 525 415 l 525 469 l 271 469 l 271 807 l 332 807 b 665 446 556 807 665 704 b 332 78 665 188 556 78 z "},"Ď":{"ha":863,"x_min":0,"x_max":0,"o":"m 451 935 l 589 1085 l 472 1085 l 421 1006 l 369 1085 l 253 1085 l 390 935 z m 349 885 l 56 885 l 56 849 b 132 788 107 849 132 838 l 132 97 b 56 36 132 47 107 36 l 56 0 l 349 0 b 810 446 636 0 810 151 b 349 885 810 740 636 885 z m 332 78 l 271 78 l 271 807 l 332 807 b 665 446 556 807 665 704 b 332 78 665 188 556 78 z "},"Đ":{"ha":863,"x_min":0,"x_max":0,"o":"m 349 885 l 56 885 l 56 849 b 132 788 107 849 132 838 l 132 469 l 64 469 l 64 415 l 132 415 l 132 97 b 56 36 132 47 107 36 l 56 0 l 349 0 b 810 446 636 0 810 151 b 349 885 810 740 636 885 z m 332 78 l 271 78 l 271 415 l 525 415 l 525 469 l 271 469 l 271 807 l 332 807 b 665 446 556 807 665 704 b 332 78 665 188 556 78 z "},"E":{"ha":813,"x_min":0,"x_max":0,"o":"m 747 211 b 647 78 722 128 697 78 l 271 78 l 271 421 l 540 421 b 601 357 590 421 601 400 l 638 357 l 638 561 l 601 561 b 540 497 601 518 590 497 l 271 497 l 271 807 l 632 807 b 718 674 682 807 701 760 l 754 681 l 725 826 l 714 885 l 56 885 l 56 849 b 132 788 107 849 132 838 l 132 97 b 56 36 132 47 107 36 l 56 0 l 721 0 l 739 60 l 782 200 z "},"É":{"ha":813,"x_min":0,"x_max":0,"o":"m 535 1069 l 460 1156 b 297 965 426 1078 388 1014 l 301 951 b 535 1069 406 957 492 1008 z m 747 211 b 647 78 722 128 697 78 l 271 78 l 271 421 l 540 421 b 601 357 590 421 601 400 l 638 357 l 638 561 l 601 561 b 540 497 601 518 590 497 l 271 497 l 271 807 l 632 807 b 718 674 682 807 701 760 l 754 681 l 725 826 l 714 885 l 56 885 l 56 849 b 132 788 107 849 132 838 l 132 97 b 56 36 132 47 107 36 l 56 0 l 721 0 l 739 60 l 782 200 z "},"Ě":{"ha":813,"x_min":0,"x_max":0,"o":"m 443 935 l 581 1085 l 464 1085 l 413 1006 l 361 1085 l 244 1085 l 382 935 z m 747 211 b 647 78 722 128 697 78 l 271 78 l 271 421 l 540 421 b 601 357 590 421 601 400 l 638 357 l 638 561 l 601 561 b 540 497 601 518 590 497 l 271 497 l 271 807 l 632 807 b 718 674 682 807 701 760 l 754 681 l 725 826 l 714 885 l 56 885 l 56 849 b 132 788 107 849 132 838 l 132 97 b 56 36 132 47 107 36 l 56 0 l 721 0 l 739 60 l 782 200 z "},"Ê":{"ha":813,"x_min":0,"x_max":0,"o":"m 413 1029 l 464 950 l 581 950 l 443 1100 l 382 1100 l 244 950 l 361 950 z m 747 211 b 647 78 722 128 697 78 l 271 78 l 271 421 l 540 421 b 601 357 590 421 601 400 l 638 357 l 638 561 l 601 561 b 540 497 601 518 590 497 l 271 497 l 271 807 l 632 807 b 718 674 682 807 701 760 l 754 681 l 725 826 l 714 885 l 56 885 l 56 849 b 132 788 107 849 132 838 l 132 97 b 56 36 132 47 107 36 l 56 0 l 721 0 l 739 60 l 782 200 z "},"Ë":{"ha":813,"x_min":0,"x_max":0,"o":"m 396 1040 l 296 1139 l 197 1040 l 296 940 z m 628 1040 l 528 1139 l 429 1040 l 528 940 z m 747 211 b 647 78 722 128 697 78 l 271 78 l 271 421 l 540 421 b 601 357 590 421 601 400 l 638 357 l 638 561 l 601 561 b 540 497 601 518 590 497 l 271 497 l 271 807 l 632 807 b 718 674 682 807 701 760 l 754 681 l 725 826 l 714 885 l 56 885 l 56 849 b 132 788 107 849 132 838 l 132 97 b 56 36 132 47 107 36 l 56 0 l 721 0 l 739 60 l 782 200 z "},"Ė":{"ha":813,"x_min":0,"x_max":0,"o":"m 511 1085 l 411 1183 l 313 1085 l 411 985 z m 747 211 b 647 78 722 128 697 78 l 271 78 l 271 421 l 540 421 b 601 357 590 421 601 400 l 638 357 l 638 561 l 601 561 b 540 497 601 518 590 497 l 271 497 l 271 807 l 632 807 b 718 674 682 807 701 760 l 754 681 l 725 826 l 714 885 l 56 885 l 56 849 b 132 788 107 849 132 838 l 132 97 b 56 36 132 47 107 36 l 56 0 l 721 0 l 739 60 l 782 200 z "},"È":{"ha":813,"x_min":0,"x_max":0,"o":"m 519 951 l 524 965 b 361 1156 433 1014 394 1078 l 286 1069 b 519 951 329 1008 415 957 z m 747 211 b 647 78 722 128 697 78 l 271 78 l 271 421 l 540 421 b 601 357 590 421 601 400 l 638 357 l 638 561 l 601 561 b 540 497 601 518 590 497 l 271 497 l 271 807 l 632 807 b 718 674 682 807 701 760 l 754 681 l 725 826 l 714 885 l 56 885 l 56 849 b 132 788 107 849 132 838 l 132 97 b 56 36 132 47 107 36 l 56 0 l 721 0 l 739 60 l 782 200 z "},"Ē":{"ha":813,"x_min":0,"x_max":0,"o":"m 618 1049 l 206 1049 l 206 994 l 618 994 z m 747 211 b 647 78 722 128 697 78 l 271 78 l 271 421 l 540 421 b 601 357 590 421 601 400 l 638 357 l 638 561 l 601 561 b 540 497 601 518 590 497 l 271 497 l 271 807 l 632 807 b 718 674 682 807 701 760 l 754 681 l 725 826 l 714 885 l 56 885 l 56 849 b 132 788 107 849 132 838 l 132 97 b 56 36 132 47 107 36 l 56 0 l 721 0 l 739 60 l 782 200 z "},"Ę":{"ha":813,"x_min":0,"x_max":0,"o":"m 747 211 b 647 78 722 128 697 78 l 271 78 l 271 421 l 540 421 b 601 357 590 421 601 400 l 638 357 l 638 561 l 601 561 b 540 497 601 518 590 497 l 271 497 l 271 807 l 632 807 b 718 674 682 807 701 760 l 754 681 l 725 826 l 714 885 l 56 885 l 56 849 b 132 788 107 849 132 838 l 132 97 b 56 36 132 47 107 36 l 56 0 l 589 0 b 479 -156 528 -39 479 -94 b 617 -268 479 -224 540 -268 b 719 -239 656 -268 688 -257 l 679 -149 b 608 -179 657 -168 638 -179 b 556 -126 571 -179 556 -156 b 651 0 556 -82 600 -39 l 721 0 l 739 60 l 782 200 z "},"F":{"ha":788,"x_min":0,"x_max":0,"o":"m 738 826 l 725 885 l 56 885 l 56 849 b 132 788 107 849 132 838 l 132 97 b 56 36 132 47 107 36 l 56 0 l 347 0 l 347 36 b 271 97 296 36 271 47 l 271 415 l 540 415 b 601 351 590 415 601 394 l 638 351 l 638 556 l 601 556 b 540 492 601 513 590 492 l 271 492 l 271 807 l 644 807 b 733 674 694 807 715 760 l 768 682 z "},"G":{"ha":892,"x_min":0,"x_max":0,"o":"m 443 -10 b 825 196 636 -10 763 79 b 811 254 815 207 811 229 l 813 399 l 367 399 l 367 369 l 564 343 b 686 225 653 331 696 293 l 671 125 b 485 83 629 101 578 83 b 192 456 304 83 192 232 b 474 822 192 739 331 822 b 650 671 579 822 650 768 b 633 571 650 638 644 606 l 790 557 l 790 581 b 454 899 790 731 724 899 b 53 456 213 899 53 724 b 443 -10 53 167 192 -10 z "},"Ğ":{"ha":892,"x_min":0,"x_max":0,"o":"m 294 1101 b 432 951 290 1001 357 951 b 568 1101 506 951 572 992 l 461 1101 b 432 989 483 1028 472 989 b 401 1101 389 989 379 1028 z m 443 -10 b 825 196 636 -10 763 79 b 811 254 815 207 811 229 l 813 399 l 367 399 l 367 369 l 564 343 b 686 225 653 331 696 293 l 671 125 b 485 83 629 101 578 83 b 192 456 304 83 192 232 b 474 822 192 739 331 822 b 650 671 579 822 650 768 b 633 571 650 638 644 606 l 790 557 l 790 581 b 454 899 790 731 724 899 b 53 456 213 899 53 724 b 443 -10 53 167 192 -10 z "},"Ģ":{"ha":892,"x_min":0,"x_max":0,"o":"m 443 -10 b 825 196 636 -10 763 79 b 811 254 815 207 811 229 l 813 399 l 367 399 l 367 369 l 564 343 b 686 225 653 331 696 293 l 671 125 b 485 83 629 101 578 83 b 192 456 304 83 192 232 b 474 822 192 739 331 822 b 650 671 579 822 650 768 b 633 571 650 638 644 606 l 790 557 l 790 581 b 454 899 790 731 724 899 b 53 456 213 899 53 724 b 443 -10 53 167 192 -10 z m 353 -125 l 451 -225 l 451 -385 l 461 -385 l 551 -125 l 451 -26 z "},"Ġ":{"ha":892,"x_min":0,"x_max":0,"o":"m 332 1085 l 431 985 l 531 1085 l 431 1183 z m 443 -10 b 825 196 636 -10 763 79 b 811 254 815 207 811 229 l 813 399 l 367 399 l 367 369 l 564 343 b 686 225 653 331 696 293 l 671 125 b 485 83 629 101 578 83 b 192 456 304 83 192 232 b 474 822 192 739 331 822 b 650 671 579 822 650 768 b 633 571 650 638 644 606 l 790 557 l 790 581 b 454 899 790 731 724 899 b 53 456 213 899 53 724 b 443 -10 53 167 192 -10 z "},"H":{"ha":935,"x_min":0,"x_max":0,"o":"m 879 849 l 879 885 l 588 885 l 588 849 b 664 788 639 849 664 838 l 664 524 l 271 524 l 271 788 b 347 849 271 838 296 849 l 347 885 l 56 885 l 56 849 b 132 788 107 849 132 838 l 132 97 b 56 36 132 47 107 36 l 56 0 l 347 0 l 347 36 b 271 97 296 36 271 47 l 271 446 l 664 446 l 664 97 b 588 36 664 47 639 36 l 588 0 l 879 0 l 879 36 b 803 97 828 36 803 47 l 803 788 b 879 849 803 838 828 849 z "},"Ħ":{"ha":935,"x_min":0,"x_max":0,"o":"m 879 849 l 879 885 l 588 885 l 588 849 b 664 788 639 849 664 838 l 664 654 l 271 654 l 271 788 b 347 849 271 838 296 849 l 347 885 l 56 885 l 56 849 b 132 788 107 849 132 838 l 132 654 l 63 654 l 63 600 l 132 600 l 132 97 b 56 36 132 47 107 36 l 56 0 l 347 0 l 347 36 b 271 97 296 36 271 47 l 271 446 l 664 446 l 664 97 b 588 36 664 47 639 36 l 588 0 l 879 0 l 879 36 b 803 97 828 36 803 47 l 803 600 l 874 600 l 874 654 l 803 654 l 803 788 b 879 849 803 838 828 849 z m 664 524 l 271 524 l 271 600 l 664 600 z "},"I":{"ha":428,"x_min":0,"x_max":0,"o":"m 283 97 l 283 788 b 379 849 283 838 314 849 l 379 885 l 49 885 l 49 849 b 144 788 114 849 144 838 l 144 97 b 49 36 144 47 114 36 l 49 0 l 379 0 l 379 36 b 283 97 314 36 283 47 z "},"Í":{"ha":428,"x_min":0,"x_max":0,"o":"m 336 1069 l 261 1156 b 99 965 228 1078 189 1014 l 103 951 b 336 1069 207 957 293 1008 z m 283 97 l 283 788 b 379 849 283 838 314 849 l 379 885 l 49 885 l 49 849 b 144 788 114 849 144 838 l 144 97 b 49 36 144 47 114 36 l 49 0 l 379 0 l 379 36 b 283 97 314 36 283 47 z "},"Î":{"ha":428,"x_min":0,"x_max":0,"o":"m 46 950 l 163 950 l 214 1029 l 265 950 l 382 950 l 244 1100 l 183 1100 z m 283 97 l 283 788 b 379 849 283 838 314 849 l 379 885 l 49 885 l 49 849 b 144 788 114 849 144 838 l 144 97 b 49 36 144 47 114 36 l 49 0 l 379 0 l 379 36 b 283 97 314 36 283 47 z "},"Ï":{"ha":428,"x_min":0,"x_max":0,"o":"m -1 1040 l 97 940 l 197 1040 l 97 1139 z m 231 1040 l 329 940 l 429 1040 l 329 1139 z m 283 97 l 283 788 b 379 849 283 838 314 849 l 379 885 l 49 885 l 49 849 b 144 788 114 849 144 838 l 144 97 b 49 36 144 47 114 36 l 49 0 l 379 0 l 379 36 b 283 97 314 36 283 47 z "},"İ":{"ha":428,"x_min":0,"x_max":0,"o":"m 114 1085 l 213 985 l 313 1085 l 213 1183 z m 283 97 l 283 788 b 379 849 283 838 314 849 l 379 885 l 49 885 l 49 849 b 144 788 114 849 144 838 l 144 97 b 49 36 144 47 114 36 l 49 0 l 379 0 l 379 36 b 283 97 314 36 283 47 z "},"Ì":{"ha":428,"x_min":0,"x_max":0,"o":"m 88 1069 b 321 951 131 1008 217 957 l 325 965 b 163 1156 235 1014 196 1078 z m 283 97 l 283 788 b 379 849 283 838 314 849 l 379 885 l 49 885 l 49 849 b 144 788 114 849 144 838 l 144 97 b 49 36 144 47 114 36 l 49 0 l 379 0 l 379 36 b 283 97 314 36 283 47 z "},"Ī":{"ha":428,"x_min":0,"x_max":0,"o":"m 7 1049 l 7 994 l 419 994 l 419 1049 z m 283 97 l 283 788 b 379 849 283 838 314 849 l 379 885 l 49 885 l 49 849 b 144 788 114 849 144 838 l 144 97 b 49 36 144 47 114 36 l 49 0 l 379 0 l 379 36 b 283 97 314 36 283 47 z "},"Į":{"ha":428,"x_min":0,"x_max":0,"o":"m 379 849 l 379 885 l 49 885 l 49 849 b 144 788 114 849 144 838 l 144 97 b 49 36 144 47 114 36 l 49 0 l 224 0 b 114 -156 163 -39 114 -94 b 251 -268 114 -224 175 -268 b 354 -239 290 -268 322 -257 l 314 -149 b 243 -179 292 -168 272 -179 b 190 -126 206 -179 190 -156 b 286 0 190 -82 235 -39 l 379 0 l 379 36 b 283 97 314 36 283 47 l 283 788 b 379 849 283 838 314 849 z "},"J":{"ha":708,"x_min":0,"x_max":0,"o":"m 639 885 l 167 885 b 201 704 192 832 201 779 l 238 704 b 299 807 238 774 249 807 l 500 807 l 500 300 b 335 67 500 122 444 67 b 168 239 236 67 168 126 b 186 350 168 271 174 308 l 28 365 l 28 339 b 339 -10 28 164 99 -10 b 639 324 538 -10 639 99 z "},"K":{"ha":904,"x_min":0,"x_max":0,"o":"m 769 79 l 514 436 l 401 444 l 686 808 b 849 849 717 849 779 849 l 849 885 l 500 885 l 500 849 b 568 808 588 849 599 847 l 271 424 l 271 788 b 347 849 271 838 296 849 l 347 885 l 56 885 l 56 849 b 132 788 107 849 132 838 l 132 97 b 56 36 132 47 107 36 l 56 0 l 347 0 l 347 36 b 271 97 296 36 271 47 l 271 276 l 378 414 l 615 79 b 544 36 646 38 632 36 l 544 0 l 903 0 l 903 36 b 769 79 851 36 799 38 z "},"Ķ":{"ha":904,"x_min":0,"x_max":0,"o":"m 769 79 l 514 436 l 401 444 l 686 808 b 849 849 717 849 779 849 l 849 885 l 500 885 l 500 849 b 568 808 588 849 599 847 l 271 424 l 271 788 b 347 849 271 838 296 849 l 347 885 l 56 885 l 56 849 b 132 788 107 849 132 838 l 132 97 b 56 36 132 47 107 36 l 56 0 l 347 0 l 347 36 b 271 97 296 36 271 47 l 271 276 l 378 414 l 615 79 b 544 36 646 38 632 36 l 544 0 l 903 0 l 903 36 b 769 79 851 36 799 38 z m 344 -125 l 443 -225 l 443 -385 l 453 -385 l 543 -125 l 443 -26 z "},"L":{"ha":696,"x_min":0,"x_max":0,"o":"m 636 211 b 543 78 615 126 593 78 l 271 78 l 271 788 b 347 849 271 838 296 849 l 347 885 l 56 885 l 56 849 b 132 788 107 849 132 838 l 132 97 b 56 36 132 47 107 36 l 56 0 l 621 0 l 636 58 l 671 203 z "},"Ĺ":{"ha":696,"x_min":0,"x_max":0,"o":"m 326 1069 l 251 1156 b 89 965 218 1078 179 1014 l 93 951 b 326 1069 197 957 283 1008 z m 636 211 b 543 78 615 126 593 78 l 271 78 l 271 788 b 347 849 271 838 296 849 l 347 885 l 56 885 l 56 849 b 132 788 107 849 132 838 l 132 97 b 56 36 132 47 107 36 l 56 0 l 621 0 l 636 58 l 671 203 z "},"Ľ":{"ha":696,"x_min":0,"x_max":0,"o":"m 539 590 l 549 590 l 639 850 l 539 949 l 440 850 l 539 750 z m 636 211 b 543 78 615 126 593 78 l 271 78 l 271 788 b 347 849 271 838 296 849 l 347 885 l 56 885 l 56 849 b 132 788 107 849 132 838 l 132 97 b 56 36 132 47 107 36 l 56 0 l 621 0 l 636 58 l 671 203 z "},"Ļ":{"ha":696,"x_min":0,"x_max":0,"o":"m 636 211 b 543 78 615 126 593 78 l 271 78 l 271 788 b 347 849 271 838 296 849 l 347 885 l 56 885 l 56 849 b 132 788 107 849 132 838 l 132 97 b 56 36 132 47 107 36 l 56 0 l 621 0 l 636 58 l 671 203 z m 279 -125 l 378 -225 l 378 -385 l 388 -385 l 478 -125 l 378 -26 z "},"Ł":{"ha":696,"x_min":0,"x_max":0,"o":"m 636 211 b 543 78 615 126 593 78 l 271 78 l 271 438 l 363 464 l 349 510 l 271 488 l 271 788 b 347 849 271 838 296 849 l 347 885 l 56 885 l 56 849 b 132 788 107 849 132 838 l 132 449 l 42 422 l 56 376 l 132 399 l 132 97 b 56 36 132 47 107 36 l 56 0 l 621 0 l 636 58 l 671 203 z "},"M":{"ha":1235,"x_min":0,"x_max":0,"o":"m 1124 96 l 1024 789 b 1086 849 1017 839 1035 849 l 1086 885 l 856 885 l 654 303 b 619 128 632 238 622 178 l 385 885 l 142 885 l 142 849 b 206 789 193 849 211 839 l 110 96 b 21 36 104 46 72 36 l 21 0 l 296 0 l 296 36 b 206 96 226 36 200 46 l 294 740 l 528 0 l 667 0 l 896 740 l 989 96 b 900 36 996 46 969 36 l 900 0 l 1214 0 l 1214 36 b 1124 96 1163 36 1131 46 z "},"N":{"ha":964,"x_min":0,"x_max":0,"o":"m 908 849 l 908 885 l 610 885 l 610 849 b 738 788 697 849 738 838 l 738 118 l 307 885 l 56 885 l 56 849 b 132 788 107 849 132 838 l 132 97 b 56 36 132 47 107 36 l 56 0 l 354 0 l 354 36 b 226 97 267 36 226 47 l 226 765 l 656 0 l 908 0 l 908 36 b 832 97 857 36 832 47 l 832 788 b 908 849 832 838 857 849 z "},"Ń":{"ha":964,"x_min":0,"x_max":0,"o":"m 604 1069 l 529 1156 b 367 965 496 1078 457 1014 l 371 951 b 604 1069 475 957 561 1008 z m 908 849 l 908 885 l 610 885 l 610 849 b 738 788 697 849 738 838 l 738 118 l 307 885 l 56 885 l 56 849 b 132 788 107 849 132 838 l 132 97 b 56 36 132 47 107 36 l 56 0 l 354 0 l 354 36 b 226 97 267 36 226 47 l 226 765 l 656 0 l 908 0 l 908 36 b 832 97 857 36 832 47 l 832 788 b 908 849 832 838 857 849 z "},"Ň":{"ha":964,"x_min":0,"x_max":0,"o":"m 513 935 l 650 1085 l 533 1085 l 482 1006 l 431 1085 l 314 1085 l 451 935 z m 908 849 l 908 885 l 610 885 l 610 849 b 738 788 697 849 738 838 l 738 118 l 307 885 l 56 885 l 56 849 b 132 788 107 849 132 838 l 132 97 b 56 36 132 47 107 36 l 56 0 l 354 0 l 354 36 b 226 97 267 36 226 47 l 226 765 l 656 0 l 908 0 l 908 36 b 832 97 857 36 832 47 l 832 788 b 908 849 832 838 857 849 z "},"Ņ":{"ha":964,"x_min":0,"x_max":0,"o":"m 908 849 l 908 885 l 610 885 l 610 849 b 738 788 697 849 738 838 l 738 118 l 307 885 l 56 885 l 56 849 b 132 788 107 849 132 838 l 132 97 b 56 36 132 47 107 36 l 56 0 l 354 0 l 354 36 b 226 97 267 36 226 47 l 226 765 l 656 0 l 908 0 l 908 36 b 832 97 857 36 832 47 l 832 788 b 908 849 832 838 857 849 z m 382 -125 l 481 -225 l 481 -385 l 490 -385 l 581 -125 l 481 -26 z "},"Ŋ":{"ha":971,"x_min":0,"x_max":0,"o":"m 674 -268 b 832 -118 781 -268 832 -224 l 832 788 b 908 849 832 838 857 849 l 908 885 l 610 885 l 610 849 b 738 788 697 849 738 838 l 738 76 l 733 76 b 643 288 718 138 689 207 l 307 885 l 56 885 l 56 849 b 132 788 107 849 132 838 l 132 97 b 56 36 132 47 107 36 l 56 0 l 354 0 l 354 36 b 226 97 267 36 226 47 l 226 765 l 656 0 b 699 -139 683 -49 699 -92 l 699 -183 b 675 -214 699 -206 690 -214 b 626 -131 653 -214 638 -182 l 493 -174 b 674 -268 533 -244 597 -268 z "},"Ñ":{"ha":964,"x_min":0,"x_max":0,"o":"m 386 986 b 535 958 446 986 467 958 b 686 1029 581 958 640 986 l 669 1046 b 581 1019 647 1036 621 1019 b 429 1047 521 1019 499 1047 b 281 961 385 1047 326 1018 l 296 950 b 386 986 319 969 346 986 z m 908 849 l 908 885 l 610 885 l 610 849 b 738 788 697 849 738 838 l 738 118 l 307 885 l 56 885 l 56 849 b 132 788 107 849 132 838 l 132 97 b 56 36 132 47 107 36 l 56 0 l 354 0 l 354 36 b 226 97 267 36 226 47 l 226 765 l 656 0 l 908 0 l 908 36 b 832 97 857 36 832 47 l 832 788 b 908 849 832 838 857 849 z "},"O":{"ha":897,"x_min":0,"x_max":0,"o":"m 449 899 b 53 451 185 899 53 707 b 449 -10 53 196 185 -10 b 844 451 713 -10 844 196 b 449 899 844 707 713 899 z m 449 67 b 197 451 294 67 197 200 b 449 822 197 703 294 822 b 700 451 603 822 700 703 b 449 67 700 200 603 67 z "},"Ó":{"ha":897,"x_min":0,"x_max":0,"o":"m 571 1069 l 496 1156 b 333 965 463 1078 424 1014 l 338 951 b 571 1069 442 957 528 1008 z m 449 899 b 53 451 185 899 53 707 b 449 -10 53 196 185 -10 b 844 451 713 -10 844 196 b 449 899 844 707 713 899 z m 449 67 b 197 451 294 67 197 200 b 449 822 197 703 294 822 b 700 451 603 822 700 703 b 449 67 700 200 603 67 z "},"Ô":{"ha":897,"x_min":0,"x_max":0,"o":"m 281 950 l 397 950 l 449 1029 l 500 950 l 617 950 l 479 1100 l 418 1100 z m 449 899 b 53 451 185 899 53 707 b 449 -10 53 196 185 -10 b 844 451 713 -10 844 196 b 449 899 844 707 713 899 z m 449 67 b 197 451 294 67 197 200 b 449 822 197 703 294 822 b 700 451 603 822 700 703 b 449 67 700 200 603 67 z "},"Ö":{"ha":897,"x_min":0,"x_max":0,"o":"m 233 1040 l 332 940 l 432 1040 l 332 1139 z m 465 1040 l 564 940 l 664 1040 l 564 1139 z m 449 899 b 53 451 185 899 53 707 b 449 -10 53 196 185 -10 b 844 451 713 -10 844 196 b 449 899 844 707 713 899 z m 449 67 b 197 451 294 67 197 200 b 449 822 197 703 294 822 b 700 451 603 822 700 703 b 449 67 700 200 603 67 z "},"Ò":{"ha":897,"x_min":0,"x_max":0,"o":"m 322 1069 b 556 951 365 1008 451 957 l 560 965 b 397 1156 469 1014 431 1078 z m 449 899 b 53 451 185 899 53 707 b 449 -10 53 196 185 -10 b 844 451 713 -10 844 196 b 449 899 844 707 713 899 z m 449 67 b 197 451 294 67 197 200 b 449 822 197 703 294 822 b 700 451 603 822 700 703 b 449 67 700 200 603 67 z "},"Ő":{"ha":897,"x_min":0,"x_max":0,"o":"m 458 1154 l 358 1154 l 358 968 l 382 968 z m 594 1154 l 496 1154 l 496 968 l 518 968 z m 449 899 b 53 451 185 899 53 707 b 449 -10 53 196 185 -10 b 844 451 713 -10 844 196 b 449 899 844 707 713 899 z m 449 67 b 197 451 294 67 197 200 b 449 822 197 703 294 822 b 700 451 603 822 700 703 b 449 67 700 200 603 67 z "},"Ō":{"ha":897,"x_min":0,"x_max":0,"o":"m 242 1049 l 242 994 l 654 994 l 654 1049 z m 449 899 b 53 451 185 899 53 707 b 449 -10 53 196 185 -10 b 844 451 713 -10 844 196 b 449 899 844 707 713 899 z m 449 67 b 197 451 294 67 197 200 b 449 822 197 703 294 822 b 700 451 603 822 700 703 b 449 67 700 200 603 67 z "},"Ø":{"ha":931,"x_min":0,"x_max":0,"o":"m 635 858 l 668 949 l 631 963 l 599 874 b 449 899 554 890 504 899 b 53 451 185 899 53 707 b 288 21 53 254 131 88 l 257 -61 l 296 -75 l 326 7 b 449 -10 363 -4 404 -10 b 844 451 713 -10 844 196 b 635 858 844 638 775 789 z m 197 451 b 449 822 197 703 294 822 b 568 792 493 822 533 813 l 318 108 b 197 451 242 165 197 281 z m 449 67 b 354 86 414 67 383 74 l 601 767 b 700 451 664 708 700 604 b 449 67 700 200 603 67 z "},"Õ":{"ha":897,"x_min":0,"x_max":0,"o":"m 247 961 l 263 950 b 353 986 286 969 313 986 b 501 958 413 986 433 958 b 653 1029 547 958 607 986 l 636 1046 b 547 1019 614 1036 588 1019 b 396 1047 488 1019 465 1047 b 247 961 351 1047 293 1018 z m 449 899 b 53 451 185 899 53 707 b 449 -10 53 196 185 -10 b 844 451 713 -10 844 196 b 449 899 844 707 713 899 z m 449 67 b 197 451 294 67 197 200 b 449 822 197 703 294 822 b 700 451 603 822 700 703 b 449 67 700 200 603 67 z "},"Œ":{"ha":1367,"x_min":0,"x_max":0,"o":"m 1301 211 b 1201 78 1276 128 1251 78 l 839 78 l 839 421 l 1110 421 b 1171 357 1160 421 1171 400 l 1207 357 l 1207 561 l 1171 561 b 1110 497 1171 518 1160 497 l 839 497 l 839 807 l 1200 807 b 1286 674 1250 807 1269 760 l 1322 681 l 1293 826 l 1282 885 l 700 885 l 700 807 b 449 899 642 865 560 899 b 53 451 185 899 53 707 b 449 -10 53 196 185 -10 b 700 88 560 -10 642 26 l 700 0 l 1275 0 l 1293 60 l 1336 200 z m 449 67 b 197 451 294 67 197 200 b 449 822 197 703 294 822 b 700 451 603 822 700 703 b 449 67 700 200 603 67 z "},"P":{"ha":719,"x_min":0,"x_max":0,"o":"m 446 885 l 56 885 l 56 849 b 132 788 107 849 132 838 l 132 97 b 56 36 132 47 107 36 l 56 0 l 347 0 l 347 36 b 271 97 296 36 271 47 l 271 506 b 443 419 290 465 342 419 b 708 664 600 419 708 519 b 446 885 708 796 610 885 z m 415 492 b 271 640 317 492 271 550 l 271 807 l 413 807 b 565 660 518 807 565 754 b 415 492 565 579 522 492 z "},"Þ":{"ha":719,"x_min":0,"x_max":0,"o":"m 446 678 l 271 678 l 271 788 b 347 849 271 838 296 849 l 347 885 l 56 885 l 56 849 b 132 788 107 849 132 838 l 132 97 b 56 36 132 47 107 36 l 56 0 l 347 0 l 347 36 b 271 97 296 36 271 47 l 271 299 b 443 213 290 258 342 213 b 708 457 600 213 708 313 b 446 678 708 589 610 678 z m 415 285 b 271 433 317 285 271 343 l 271 600 l 413 600 b 565 453 518 600 565 547 b 415 285 565 372 522 285 z "},"Q":{"ha":904,"x_min":0,"x_max":0,"o":"m 675 56 b 847 451 790 136 847 283 b 451 899 847 707 715 899 b 56 451 188 899 56 707 b 451 -10 56 196 188 -10 b 611 21 511 -10 565 1 l 722 -132 l 836 -250 l 851 -237 z m 451 822 b 703 451 606 822 703 703 b 621 146 703 313 674 211 l 269 733 b 451 822 313 793 375 822 z m 451 67 b 200 451 297 67 200 200 b 256 713 200 565 219 651 l 303 444 l 558 93 b 451 67 526 75 492 67 z "},"R":{"ha":824,"x_min":0,"x_max":0,"o":"m 568 313 b 381 472 521 369 443 435 l 383 479 b 468 468 408 471 432 468 b 708 674 585 468 708 529 b 446 885 708 806 610 885 l 56 885 l 56 849 b 132 788 107 849 132 838 l 132 97 b 56 36 132 47 107 36 l 56 0 l 347 0 l 347 36 b 271 97 296 36 271 47 l 271 503 l 596 78 b 528 36 628 38 615 36 l 528 0 l 810 0 l 810 26 z m 271 668 l 271 807 l 413 807 b 565 660 526 807 565 750 b 428 524 565 583 522 524 b 271 668 349 524 271 579 z "},"Ŕ":{"ha":824,"x_min":0,"x_max":0,"o":"m 494 1069 l 419 1156 b 257 965 386 1078 347 1014 l 261 951 b 494 1069 365 957 451 1008 z m 568 313 b 381 472 521 369 443 435 l 383 479 b 468 468 408 471 432 468 b 708 674 585 468 708 529 b 446 885 708 806 610 885 l 56 885 l 56 849 b 132 788 107 849 132 838 l 132 97 b 56 36 132 47 107 36 l 56 0 l 347 0 l 347 36 b 271 97 296 36 271 47 l 271 503 l 596 78 b 528 36 628 38 615 36 l 528 0 l 810 0 l 810 26 z m 271 668 l 271 807 l 413 807 b 565 660 526 807 565 750 b 428 524 565 583 522 524 b 271 668 349 524 271 579 z "},"Ř":{"ha":824,"x_min":0,"x_max":0,"o":"m 403 935 l 540 1085 l 424 1085 l 372 1006 l 321 1085 l 204 1085 l 342 935 z m 568 313 b 381 472 521 369 443 435 l 383 479 b 468 468 408 471 432 468 b 708 674 585 468 708 529 b 446 885 708 806 610 885 l 56 885 l 56 849 b 132 788 107 849 132 838 l 132 97 b 56 36 132 47 107 36 l 56 0 l 347 0 l 347 36 b 271 97 296 36 271 47 l 271 503 l 596 78 b 528 36 628 38 615 36 l 528 0 l 810 0 l 810 26 z m 271 668 l 271 807 l 413 807 b 565 660 526 807 565 750 b 428 524 565 583 522 524 b 271 668 349 524 271 579 z "},"Ŗ":{"ha":824,"x_min":0,"x_max":0,"o":"m 568 313 b 381 472 521 369 443 435 l 383 479 b 468 468 408 471 432 468 b 708 674 585 468 708 529 b 446 885 708 806 610 885 l 56 885 l 56 849 b 132 788 107 849 132 838 l 132 97 b 56 36 132 47 107 36 l 56 0 l 347 0 l 347 36 b 271 97 296 36 271 47 l 271 503 l 596 78 b 528 36 628 38 615 36 l 528 0 l 810 0 l 810 26 z m 271 668 l 271 807 l 413 807 b 565 660 526 807 565 750 b 428 524 565 583 522 524 b 271 668 349 524 271 579 z m 335 -125 l 433 -225 l 433 -385 l 443 -385 l 533 -125 l 433 -26 z "},"S":{"ha":731,"x_min":0,"x_max":0,"o":"m 514 486 l 300 563 b 189 688 219 592 189 629 b 383 825 189 756 239 825 b 638 567 506 825 613 751 l 667 567 l 653 806 b 375 899 586 865 482 899 b 64 656 164 899 64 783 b 254 425 64 544 114 475 l 444 358 b 564 211 536 326 564 278 b 386 64 564 122 504 64 b 71 413 218 64 79 197 l 42 413 l 42 132 b 371 -10 97 57 210 -10 b 692 246 579 -10 692 90 b 514 486 692 353 656 436 z "},"Ś":{"ha":731,"x_min":0,"x_max":0,"o":"m 489 1069 l 414 1156 b 251 965 381 1078 342 1014 l 256 951 b 489 1069 360 957 446 1008 z m 514 486 l 300 563 b 189 688 219 592 189 629 b 383 825 189 756 239 825 b 638 567 506 825 613 751 l 667 567 l 653 806 b 375 899 586 865 482 899 b 64 656 164 899 64 783 b 254 425 64 544 114 475 l 444 358 b 564 211 536 326 564 278 b 386 64 564 122 504 64 b 71 413 218 64 79 197 l 42 413 l 42 132 b 371 -10 97 57 210 -10 b 692 246 579 -10 692 90 b 514 486 692 353 656 436 z "},"Š":{"ha":731,"x_min":0,"x_max":0,"o":"m 199 1085 l 336 935 l 397 935 l 535 1085 l 418 1085 l 367 1006 l 315 1085 z m 514 486 l 300 563 b 189 688 219 592 189 629 b 383 825 189 756 239 825 b 638 567 506 825 613 751 l 667 567 l 653 806 b 375 899 586 865 482 899 b 64 656 164 899 64 783 b 254 425 64 544 114 475 l 444 358 b 564 211 536 326 564 278 b 386 64 564 122 504 64 b 71 413 218 64 79 197 l 42 413 l 42 132 b 371 -10 97 57 210 -10 b 692 246 579 -10 692 90 b 514 486 692 353 656 436 z "},"Ş":{"ha":731,"x_min":0,"x_max":0,"o":"m 692 246 b 514 486 692 353 656 436 l 300 563 b 189 688 219 592 189 629 b 383 825 189 756 239 825 b 638 567 506 825 613 751 l 667 567 l 653 806 b 375 899 586 865 482 899 b 64 656 164 899 64 783 b 254 425 64 544 114 475 l 444 358 b 564 211 536 326 564 278 b 386 64 564 122 504 64 b 71 413 218 64 79 197 l 42 413 l 42 132 b 331 -8 93 64 190 1 l 286 -107 b 333 -103 301 -104 318 -103 b 411 -175 383 -103 411 -129 b 364 -226 411 -194 401 -226 b 324 -192 342 -226 324 -212 b 335 -153 324 -178 328 -165 l 261 -140 b 253 -187 254 -157 253 -174 b 363 -278 253 -236 294 -278 b 481 -165 435 -278 481 -235 b 390 -74 481 -100 435 -74 b 358 -78 378 -74 367 -75 l 418 -8 b 692 246 596 7 692 103 z "},"Ș":{"ha":731,"x_min":0,"x_max":0,"o":"m 514 486 l 300 563 b 189 688 219 592 189 629 b 383 825 189 756 239 825 b 638 567 506 825 613 751 l 667 567 l 653 806 b 375 899 586 865 482 899 b 64 656 164 899 64 783 b 254 425 64 544 114 475 l 444 358 b 564 211 536 326 564 278 b 386 64 564 122 504 64 b 71 413 218 64 79 197 l 42 413 l 42 132 b 371 -10 97 57 210 -10 b 692 246 579 -10 692 90 b 514 486 692 353 656 436 z m 267 -125 l 365 -225 l 365 -385 l 375 -385 l 465 -125 l 365 -26 z "},"T":{"ha":776,"x_min":0,"x_max":0,"o":"m 756 826 l 749 903 b 647 885 719 888 694 885 l 132 885 b 31 903 85 885 58 888 l 22 826 l 8 679 l 43 675 b 118 807 53 763 68 807 l 319 807 l 319 97 b 224 36 319 47 289 36 l 224 0 l 554 0 l 554 36 b 458 97 489 36 458 47 l 458 807 l 660 807 b 732 676 710 807 725 763 l 768 679 z "},"Ŧ":{"ha":776,"x_min":0,"x_max":0,"o":"m 756 826 l 749 903 b 647 885 719 888 694 885 l 132 885 b 31 903 85 885 58 888 l 22 826 l 8 679 l 43 675 b 118 807 53 763 68 807 l 319 807 l 319 469 l 158 469 l 158 415 l 319 415 l 319 97 b 224 36 319 47 289 36 l 224 0 l 554 0 l 554 36 b 458 97 489 36 458 47 l 458 415 l 619 415 l 619 469 l 458 469 l 458 807 l 660 807 b 732 676 710 807 725 763 l 768 679 z "},"Ť":{"ha":776,"x_min":0,"x_max":0,"o":"m 419 935 l 557 1085 l 440 1085 l 389 1006 l 338 1085 l 221 1085 l 358 935 z m 756 826 l 749 903 b 647 885 719 888 694 885 l 132 885 b 31 903 85 885 58 888 l 22 826 l 8 679 l 43 675 b 118 807 53 763 68 807 l 319 807 l 319 97 b 224 36 319 47 289 36 l 224 0 l 554 0 l 554 36 b 458 97 489 36 458 47 l 458 807 l 660 807 b 732 676 710 807 725 763 l 768 679 z "},"Ţ":{"ha":776,"x_min":0,"x_max":0,"o":"m 756 826 l 749 903 b 647 885 719 888 694 885 l 132 885 b 31 903 85 885 58 888 l 22 826 l 8 679 l 43 675 b 118 807 53 763 68 807 l 319 807 l 319 97 b 224 36 319 47 289 36 l 224 0 l 356 0 l 308 -107 b 356 -103 324 -104 340 -103 b 433 -175 406 -103 433 -129 b 386 -226 433 -194 424 -226 b 346 -192 364 -226 346 -212 b 357 -153 346 -178 350 -165 l 283 -140 b 275 -187 276 -157 275 -174 b 385 -278 275 -236 317 -278 b 503 -165 457 -278 503 -235 b 413 -74 503 -100 457 -74 b 381 -78 400 -74 389 -75 l 447 0 l 554 0 l 554 36 b 458 97 489 36 458 47 l 458 807 l 660 807 b 732 676 710 807 725 763 l 768 679 z "},"Ț":{"ha":776,"x_min":0,"x_max":0,"o":"m 756 826 l 749 903 b 647 885 719 888 694 885 l 132 885 b 31 903 85 885 58 888 l 22 826 l 8 679 l 43 675 b 118 807 53 763 68 807 l 319 807 l 319 97 b 224 36 319 47 289 36 l 224 0 l 554 0 l 554 36 b 458 97 489 36 458 47 l 458 807 l 660 807 b 732 676 710 807 725 763 l 768 679 z m 289 -125 l 388 -225 l 388 -385 l 397 -385 l 488 -125 l 388 -26 z "},"U":{"ha":857,"x_min":0,"x_max":0,"o":"m 319 886 l 28 886 l 28 850 b 104 789 79 850 104 839 l 104 326 b 451 -11 104 81 231 -11 b 753 308 635 -11 753 82 l 753 788 b 829 849 753 838 778 849 l 829 885 l 556 885 l 556 849 b 658 788 625 849 658 838 l 658 310 b 451 69 658 131 568 69 b 243 329 336 69 243 133 l 243 789 b 319 850 243 839 268 850 z "},"Ú":{"ha":857,"x_min":0,"x_max":0,"o":"m 551 1069 l 476 1156 b 314 965 443 1078 404 1014 l 318 951 b 551 1069 422 957 508 1008 z m 319 886 l 28 886 l 28 850 b 104 789 79 850 104 839 l 104 326 b 451 -11 104 81 231 -11 b 753 308 635 -11 753 82 l 753 788 b 829 849 753 838 778 849 l 829 885 l 556 885 l 556 849 b 658 788 625 849 658 838 l 658 310 b 451 69 658 131 568 69 b 243 329 336 69 243 133 l 243 789 b 319 850 243 839 268 850 z "},"Û":{"ha":857,"x_min":0,"x_max":0,"o":"m 261 950 l 378 950 l 429 1029 l 481 950 l 597 950 l 460 1100 l 399 1100 z m 319 886 l 28 886 l 28 850 b 104 789 79 850 104 839 l 104 326 b 451 -11 104 81 231 -11 b 753 308 635 -11 753 82 l 753 788 b 829 849 753 838 778 849 l 829 885 l 556 885 l 556 849 b 658 788 625 849 658 838 l 658 310 b 451 69 658 131 568 69 b 243 329 336 69 243 133 l 243 789 b 319 850 243 839 268 850 z "},"Ü":{"ha":857,"x_min":0,"x_max":0,"o":"m 214 1040 l 313 940 l 413 1040 l 313 1139 z m 446 1040 l 544 940 l 644 1040 l 544 1139 z m 319 886 l 28 886 l 28 850 b 104 789 79 850 104 839 l 104 326 b 451 -11 104 81 231 -11 b 753 308 635 -11 753 82 l 753 788 b 829 849 753 838 778 849 l 829 885 l 556 885 l 556 849 b 658 788 625 849 658 838 l 658 310 b 451 69 658 131 568 69 b 243 329 336 69 243 133 l 243 789 b 319 850 243 839 268 850 z "},"Ù":{"ha":857,"x_min":0,"x_max":0,"o":"m 303 1069 b 536 951 346 1008 432 957 l 540 965 b 378 1156 450 1014 411 1078 z m 319 886 l 28 886 l 28 850 b 104 789 79 850 104 839 l 104 326 b 451 -11 104 81 231 -11 b 753 308 635 -11 753 82 l 753 788 b 829 849 753 838 778 849 l 829 885 l 556 885 l 556 849 b 658 788 625 849 658 838 l 658 310 b 451 69 658 131 568 69 b 243 329 336 69 243 133 l 243 789 b 319 850 243 839 268 850 z "},"Ű":{"ha":857,"x_min":0,"x_max":0,"o":"m 439 1154 l 339 1154 l 339 968 l 363 968 z m 575 1154 l 476 1154 l 476 968 l 499 968 z m 319 886 l 28 886 l 28 850 b 104 789 79 850 104 839 l 104 326 b 451 -11 104 81 231 -11 b 753 308 635 -11 753 82 l 753 788 b 829 849 753 838 778 849 l 829 885 l 556 885 l 556 849 b 658 788 625 849 658 838 l 658 310 b 451 69 658 131 568 69 b 243 329 336 69 243 133 l 243 789 b 319 850 243 839 268 850 z "},"Ū":{"ha":857,"x_min":0,"x_max":0,"o":"m 222 1049 l 222 994 l 635 994 l 635 1049 z m 319 886 l 28 886 l 28 850 b 104 789 79 850 104 839 l 104 326 b 451 -11 104 81 231 -11 b 753 308 635 -11 753 82 l 753 788 b 829 849 753 838 778 849 l 829 885 l 556 885 l 556 849 b 658 788 625 849 658 838 l 658 310 b 451 69 658 131 568 69 b 243 329 336 69 243 133 l 243 789 b 319 850 243 839 268 850 z "},"Ų":{"ha":857,"x_min":0,"x_max":0,"o":"m 829 885 l 556 885 l 556 849 b 658 788 625 849 658 838 l 658 310 b 451 69 658 131 568 69 b 243 329 336 69 243 133 l 243 789 b 319 850 243 839 268 850 l 319 886 l 28 886 l 28 850 b 104 789 79 850 104 839 l 104 326 b 433 -11 104 88 224 -6 b 339 -156 379 -49 339 -100 b 476 -268 339 -224 400 -268 b 579 -239 515 -268 547 -257 l 539 -149 b 468 -179 517 -168 497 -179 b 415 -126 431 -179 415 -156 b 500 -8 415 -85 453 -44 b 753 308 656 7 753 103 l 753 788 b 829 849 753 838 778 849 z "},"Ů":{"ha":857,"x_min":0,"x_max":0,"o":"m 429 946 b 510 1026 474 946 510 982 b 429 1107 510 1071 474 1107 b 349 1026 385 1107 349 1071 b 429 946 349 982 385 946 z m 429 1001 b 404 1026 415 1001 404 1013 b 429 1051 404 1040 415 1051 b 454 1026 443 1051 454 1040 b 429 1001 454 1013 443 1001 z m 319 886 l 28 886 l 28 850 b 104 789 79 850 104 839 l 104 326 b 451 -11 104 81 231 -11 b 753 308 635 -11 753 82 l 753 788 b 829 849 753 838 778 849 l 829 885 l 556 885 l 556 849 b 658 788 625 849 658 838 l 658 310 b 451 69 658 131 568 69 b 243 329 336 69 243 133 l 243 789 b 319 850 243 839 268 850 z "},"V":{"ha":900,"x_min":0,"x_max":0,"o":"m 899 885 l 549 885 l 549 849 b 694 793 671 849 713 840 l 515 293 b 478 111 494 235 483 167 l 218 885 l 3 885 l 3 849 b 110 793 54 849 94 840 l 376 0 l 525 0 l 792 793 b 899 849 807 840 847 849 z "},"W":{"ha":1469,"x_min":0,"x_max":0,"o":"m 1468 885 l 1193 885 l 1193 849 b 1268 792 1263 849 1282 840 l 1053 82 l 804 885 l 561 885 l 561 849 b 693 792 631 849 678 840 l 708 742 l 467 67 l 246 792 b 294 849 232 840 243 849 l 294 885 l 3 885 l 3 849 b 107 792 54 849 93 840 l 349 0 l 539 0 l 693 431 b 742 633 717 497 733 568 l 939 0 l 1122 0 l 1364 792 b 1468 849 1378 840 1417 849 z "},"Ẃ":{"ha":1469,"x_min":0,"x_max":0,"o":"m 858 1069 l 783 1156 b 621 965 750 1078 711 1014 l 625 951 b 858 1069 729 957 815 1008 z m 1468 885 l 1193 885 l 1193 849 b 1268 792 1263 849 1282 840 l 1053 82 l 804 885 l 561 885 l 561 849 b 693 792 631 849 678 840 l 708 742 l 467 67 l 246 792 b 294 849 232 840 243 849 l 294 885 l 3 885 l 3 849 b 107 792 54 849 93 840 l 349 0 l 539 0 l 693 431 b 742 633 717 497 733 568 l 939 0 l 1122 0 l 1364 792 b 1468 849 1378 840 1417 849 z "},"Ŵ":{"ha":1469,"x_min":0,"x_max":0,"o":"m 736 1029 l 788 950 l 904 950 l 767 1100 l 706 1100 l 568 950 l 685 950 z m 1468 885 l 1193 885 l 1193 849 b 1268 792 1263 849 1282 840 l 1053 82 l 804 885 l 561 885 l 561 849 b 693 792 631 849 678 840 l 708 742 l 467 67 l 246 792 b 294 849 232 840 243 849 l 294 885 l 3 885 l 3 849 b 107 792 54 849 93 840 l 349 0 l 539 0 l 693 431 b 742 633 717 497 733 568 l 939 0 l 1122 0 l 1364 792 b 1468 849 1378 840 1417 849 z "},"Ẅ":{"ha":1469,"x_min":0,"x_max":0,"o":"m 719 1040 l 619 1139 l 521 1040 l 619 940 z m 951 1040 l 851 1139 l 753 1040 l 851 940 z m 1468 885 l 1193 885 l 1193 849 b 1268 792 1263 849 1282 840 l 1053 82 l 804 885 l 561 885 l 561 849 b 693 792 631 849 678 840 l 708 742 l 467 67 l 246 792 b 294 849 232 840 243 849 l 294 885 l 3 885 l 3 849 b 107 792 54 849 93 840 l 349 0 l 539 0 l 693 431 b 742 633 717 497 733 568 l 939 0 l 1122 0 l 1364 792 b 1468 849 1378 840 1417 849 z "},"Ẁ":{"ha":1469,"x_min":0,"x_max":0,"o":"m 843 951 l 847 965 b 685 1156 757 1014 718 1078 l 610 1069 b 843 951 653 1008 739 957 z m 1468 885 l 1193 885 l 1193 849 b 1268 792 1263 849 1282 840 l 1053 82 l 804 885 l 561 885 l 561 849 b 693 792 631 849 678 840 l 708 742 l 467 67 l 246 792 b 294 849 232 840 243 849 l 294 885 l 3 885 l 3 849 b 107 792 54 849 93 840 l 349 0 l 539 0 l 693 431 b 742 633 717 497 733 568 l 939 0 l 1122 0 l 1364 792 b 1468 849 1378 840 1417 849 z "},"X":{"ha":951,"x_min":0,"x_max":0,"o":"m 776 82 l 539 460 l 765 804 b 896 849 793 846 844 849 l 896 885 l 582 885 l 582 849 b 656 804 669 849 683 846 l 486 546 l 272 885 l 53 885 l 53 849 b 181 803 104 849 154 846 l 399 456 l 151 81 b 21 36 124 39 72 36 l 21 0 l 333 0 l 333 36 b 260 81 246 36 232 39 l 451 371 l 633 82 b 608 36 660 39 660 36 l 608 0 l 931 0 l 931 36 b 776 82 861 36 803 39 z "},"Y":{"ha":849,"x_min":0,"x_max":0,"o":"m 846 885 l 538 885 l 538 849 b 619 799 625 849 643 843 l 438 457 l 229 885 l 8 885 l 8 849 b 128 797 60 849 106 843 l 346 360 l 346 97 b 250 36 346 47 315 36 l 250 0 l 582 0 l 582 36 b 486 97 517 36 486 47 l 486 368 l 722 800 b 846 849 747 844 794 849 z "},"Ý":{"ha":849,"x_min":0,"x_max":0,"o":"m 550 1069 l 475 1156 b 313 965 442 1078 403 1014 l 317 951 b 550 1069 421 957 507 1008 z m 846 885 l 538 885 l 538 849 b 619 799 625 849 643 843 l 438 457 l 229 885 l 8 885 l 8 849 b 128 797 60 849 106 843 l 346 360 l 346 97 b 250 36 346 47 315 36 l 250 0 l 582 0 l 582 36 b 486 97 517 36 486 47 l 486 368 l 722 800 b 846 849 747 844 794 849 z "},"Ŷ":{"ha":849,"x_min":0,"x_max":0,"o":"m 428 1029 l 479 950 l 596 950 l 458 1100 l 397 1100 l 260 950 l 376 950 z m 846 885 l 538 885 l 538 849 b 619 799 625 849 643 843 l 438 457 l 229 885 l 8 885 l 8 849 b 128 797 60 849 106 843 l 346 360 l 346 97 b 250 36 346 47 315 36 l 250 0 l 582 0 l 582 36 b 486 97 517 36 486 47 l 486 368 l 722 800 b 846 849 747 844 794 849 z "},"Ÿ":{"ha":849,"x_min":0,"x_max":0,"o":"m 411 1040 l 311 1139 l 213 1040 l 311 940 z m 643 1040 l 543 1139 l 444 1040 l 543 940 z m 846 885 l 538 885 l 538 849 b 619 799 625 849 643 843 l 438 457 l 229 885 l 8 885 l 8 849 b 128 797 60 849 106 843 l 346 360 l 346 97 b 250 36 346 47 315 36 l 250 0 l 582 0 l 582 36 b 486 97 517 36 486 47 l 486 368 l 722 800 b 846 849 747 844 794 849 z "},"Ỳ":{"ha":849,"x_min":0,"x_max":0,"o":"m 535 951 l 539 965 b 376 1156 449 1014 410 1078 l 301 1069 b 535 951 344 1008 431 957 z m 846 885 l 538 885 l 538 849 b 619 799 625 849 643 843 l 438 457 l 229 885 l 8 885 l 8 849 b 128 797 60 849 106 843 l 346 360 l 346 97 b 250 36 346 47 315 36 l 250 0 l 582 0 l 582 36 b 486 97 517 36 486 47 l 486 368 l 722 800 b 846 849 747 844 794 849 z "},"Z":{"ha":860,"x_min":0,"x_max":0,"o":"m 794 274 b 692 85 767 153 742 86 l 226 74 b 346 229 265 111 300 165 l 803 869 l 803 885 l 104 885 l 96 819 l 75 651 l 110 647 b 190 800 122 746 140 799 l 619 811 b 532 703 588 781 558 742 l 56 13 l 56 0 l 700 0 b 765 -18 732 0 753 -7 l 783 60 l 829 267 z "},"Ź":{"ha":860,"x_min":0,"x_max":0,"o":"m 551 1069 l 476 1156 b 314 965 443 1078 404 1014 l 318 951 b 551 1069 422 957 508 1008 z m 794 274 b 692 85 767 153 742 86 l 226 74 b 346 229 265 111 300 165 l 803 869 l 803 885 l 104 885 l 96 819 l 75 651 l 110 647 b 190 800 122 746 140 799 l 619 811 b 532 703 588 781 558 742 l 56 13 l 56 0 l 700 0 b 765 -18 732 0 753 -7 l 783 60 l 829 267 z "},"Ž":{"ha":860,"x_min":0,"x_max":0,"o":"m 460 935 l 597 1085 l 481 1085 l 429 1006 l 378 1085 l 261 1085 l 399 935 z m 794 274 b 692 85 767 153 742 86 l 226 74 b 346 229 265 111 300 165 l 803 869 l 803 885 l 104 885 l 96 819 l 75 651 l 110 647 b 190 800 122 746 140 799 l 619 811 b 532 703 588 781 558 742 l 56 13 l 56 0 l 700 0 b 765 -18 732 0 753 -7 l 783 60 l 829 267 z "},"Ż":{"ha":860,"x_min":0,"x_max":0,"o":"m 528 1085 l 428 1183 l 329 1085 l 428 985 z m 794 274 b 692 85 767 153 742 86 l 226 74 b 346 229 265 111 300 165 l 803 869 l 803 885 l 104 885 l 96 819 l 75 651 l 110 647 b 190 800 122 746 140 799 l 619 811 b 532 703 588 781 558 742 l 56 13 l 56 0 l 700 0 b 765 -18 732 0 753 -7 l 783 60 l 829 267 z "},"a":{"ha":636,"x_min":0,"x_max":0,"o":"m 542 97 l 542 342 b 300 640 542 469 532 640 b 60 464 153 640 60 564 b 71 410 60 440 68 418 l 192 421 l 192 425 b 185 471 188 440 185 454 b 293 574 185 529 219 574 b 418 382 379 574 418 504 l 418 358 l 63 319 b 42 204 47 283 42 238 b 228 -10 42 58 108 -10 b 421 176 354 -10 403 86 l 425 176 l 425 0 l 606 0 l 606 36 b 542 97 563 36 542 47 z m 260 67 b 169 189 199 67 169 117 b 182 271 169 219 174 250 l 415 318 b 260 67 403 144 335 67 z "},"á":{"ha":636,"x_min":0,"x_max":0,"o":"m 413 833 l 338 922 b 175 714 304 844 265 776 l 182 700 b 413 833 283 719 358 772 z m 542 97 l 542 342 b 300 640 542 469 532 640 b 60 464 153 640 60 564 b 71 410 60 440 68 418 l 192 421 l 192 425 b 185 471 188 440 185 454 b 293 574 185 529 219 574 b 418 382 379 574 418 504 l 418 358 l 63 319 b 42 204 47 283 42 238 b 228 -10 42 58 108 -10 b 421 176 354 -10 403 86 l 425 176 l 425 0 l 606 0 l 606 36 b 542 97 563 36 542 47 z m 260 67 b 169 189 199 67 169 117 b 182 271 169 219 174 250 l 415 318 b 260 67 403 144 335 67 z "},"ă":{"ha":636,"x_min":0,"x_max":0,"o":"m 303 735 b 439 885 376 735 443 775 l 332 885 b 303 772 354 811 343 772 b 272 885 260 772 250 811 l 165 885 b 303 735 161 785 228 735 z m 542 97 l 542 342 b 300 640 542 469 532 640 b 60 464 153 640 60 564 b 71 410 60 440 68 418 l 192 421 l 192 425 b 185 471 188 440 185 454 b 293 574 185 529 219 574 b 418 382 379 574 418 504 l 418 358 l 63 319 b 42 204 47 283 42 238 b 228 -10 42 58 108 -10 b 421 176 354 -10 403 86 l 425 176 l 425 0 l 606 0 l 606 36 b 542 97 563 36 542 47 z m 260 67 b 169 189 199 67 169 117 b 182 271 169 219 174 250 l 415 318 b 260 67 403 144 335 67 z "},"â":{"ha":636,"x_min":0,"x_max":0,"o":"m 303 828 l 354 749 l 471 749 l 333 899 l 272 899 l 135 749 l 251 749 z m 542 97 l 542 342 b 300 640 542 469 532 640 b 60 464 153 640 60 564 b 71 410 60 440 68 418 l 192 421 l 192 425 b 185 471 188 440 185 454 b 293 574 185 529 219 574 b 418 382 379 574 418 504 l 418 358 l 63 319 b 42 204 47 283 42 238 b 228 -10 42 58 108 -10 b 421 176 354 -10 403 86 l 425 176 l 425 0 l 606 0 l 606 36 b 542 97 563 36 542 47 z m 260 67 b 169 189 199 67 169 117 b 182 271 169 219 174 250 l 415 318 b 260 67 403 144 335 67 z "},"ä":{"ha":636,"x_min":0,"x_max":0,"o":"m 286 828 l 188 926 l 88 828 l 188 726 z m 518 828 l 419 926 l 319 828 l 419 726 z m 542 97 l 542 342 b 300 640 542 469 532 640 b 60 464 153 640 60 564 b 71 410 60 440 68 418 l 192 421 l 192 425 b 185 471 188 440 185 454 b 293 574 185 529 219 574 b 418 382 379 574 418 504 l 418 358 l 63 319 b 42 204 47 283 42 238 b 228 -10 42 58 108 -10 b 421 176 354 -10 403 86 l 425 176 l 425 0 l 606 0 l 606 36 b 542 97 563 36 542 47 z m 260 67 b 169 189 199 67 169 117 b 182 271 169 219 174 250 l 415 318 b 260 67 403 144 335 67 z "},"à":{"ha":636,"x_min":0,"x_max":0,"o":"m 410 700 l 417 714 b 254 922 326 776 288 844 l 179 833 b 410 700 233 772 308 719 z m 542 97 l 542 342 b 300 640 542 469 532 640 b 60 464 153 640 60 564 b 71 410 60 440 68 418 l 192 421 l 192 425 b 185 471 188 440 185 454 b 293 574 185 529 219 574 b 418 382 379 574 418 504 l 418 358 l 63 319 b 42 204 47 283 42 238 b 228 -10 42 58 108 -10 b 421 176 354 -10 403 86 l 425 176 l 425 0 l 606 0 l 606 36 b 542 97 563 36 542 47 z m 260 67 b 169 189 199 67 169 117 b 182 271 169 219 174 250 l 415 318 b 260 67 403 144 335 67 z "},"ā":{"ha":636,"x_min":0,"x_max":0,"o":"m 508 792 l 96 792 l 96 738 l 508 738 z m 542 97 l 542 342 b 300 640 542 469 532 640 b 60 464 153 640 60 564 b 71 410 60 440 68 418 l 192 421 l 192 425 b 185 471 188 440 185 454 b 293 574 185 529 219 574 b 418 382 379 574 418 504 l 418 358 l 63 319 b 42 204 47 283 42 238 b 228 -10 42 58 108 -10 b 421 176 354 -10 403 86 l 425 176 l 425 0 l 606 0 l 606 36 b 542 97 563 36 542 47 z m 260 67 b 169 189 199 67 169 117 b 182 271 169 219 174 250 l 415 318 b 260 67 403 144 335 67 z "},"ą":{"ha":636,"x_min":0,"x_max":0,"o":"m 542 97 l 542 342 b 300 640 542 469 532 640 b 60 464 153 640 60 564 b 71 410 60 440 68 418 l 192 421 l 192 425 b 185 471 188 440 185 454 b 293 574 185 529 219 574 b 418 382 379 574 418 504 l 418 358 l 63 319 b 42 204 47 283 42 238 b 228 -10 42 58 108 -10 b 421 176 354 -10 403 86 l 425 176 l 425 4 b 282 -169 349 -35 282 -97 b 419 -282 282 -237 343 -282 b 522 -253 458 -282 490 -271 l 482 -162 b 411 -193 460 -182 440 -193 b 358 -140 374 -193 358 -169 b 472 -1 358 -90 413 -43 l 465 0 l 606 0 l 606 36 b 542 97 563 36 542 47 z m 260 67 b 169 189 199 67 169 117 b 182 271 169 219 174 250 l 415 318 b 260 67 403 144 335 67 z "},"å":{"ha":636,"x_min":0,"x_max":0,"o":"m 303 739 b 383 819 347 739 383 775 b 303 899 383 864 347 899 b 222 819 258 899 222 864 b 303 739 222 775 258 739 z m 303 843 b 328 819 317 843 328 833 b 303 793 328 806 317 793 b 278 819 289 793 278 806 b 303 843 278 833 289 843 z m 542 97 l 542 342 b 300 640 542 469 532 640 b 60 464 153 640 60 564 b 71 410 60 440 68 418 l 192 421 l 192 425 b 185 471 188 440 185 454 b 293 574 185 529 219 574 b 418 382 379 574 418 504 l 418 358 l 63 319 b 42 204 47 283 42 238 b 228 -10 42 58 108 -10 b 421 176 354 -10 403 86 l 425 176 l 425 0 l 606 0 l 606 36 b 542 97 563 36 542 47 z m 260 67 b 169 189 199 67 169 117 b 182 271 169 219 174 250 l 415 318 b 260 67 403 144 335 67 z "},"ã":{"ha":636,"x_min":0,"x_max":0,"o":"m 226 771 b 356 743 274 771 301 743 b 464 814 392 743 428 771 l 451 831 b 381 804 433 821 413 804 b 250 832 333 804 304 832 b 143 746 214 832 179 803 l 154 735 b 226 771 174 754 194 771 z m 542 97 l 542 342 b 300 640 542 469 532 640 b 60 464 153 640 60 564 b 71 410 60 440 68 418 l 192 421 l 192 425 b 185 471 188 440 185 454 b 293 574 185 529 219 574 b 418 382 379 574 418 504 l 418 358 l 63 319 b 42 204 47 283 42 238 b 228 -10 42 58 108 -10 b 421 176 354 -10 403 86 l 425 176 l 425 0 l 606 0 l 606 36 b 542 97 563 36 542 47 z m 260 67 b 169 189 199 67 169 117 b 182 271 169 219 174 250 l 415 318 b 260 67 403 144 335 67 z "},"æ":{"ha":1010,"x_min":0,"x_max":0,"o":"m 228 -10 b 439 176 317 -10 422 57 b 724 -10 481 51 585 -10 b 968 176 885 -10 946 110 l 940 188 b 756 68 917 139 867 68 b 546 311 629 68 551 156 l 958 324 b 961 392 961 343 961 360 b 707 640 961 546 872 640 b 497 533 619 640 547 614 b 300 640 463 608 403 640 b 60 464 153 640 60 564 b 71 410 60 440 68 418 l 192 421 l 192 425 b 185 471 188 440 185 454 b 293 574 185 529 219 574 b 418 382 379 574 418 504 l 418 358 l 63 319 b 42 204 47 283 42 238 b 228 -10 42 58 108 -10 z m 546 354 b 711 574 553 517 621 574 b 836 440 790 574 836 511 b 829 379 836 417 833 397 z m 260 67 b 169 183 199 67 169 117 b 182 271 169 219 175 250 l 415 318 b 260 67 403 144 335 67 z "},"b":{"ha":732,"x_min":0,"x_max":0,"o":"m 444 640 b 242 506 338 640 264 575 l 242 885 l 44 885 l 44 849 b 108 788 88 849 108 838 l 108 97 b 44 36 108 47 88 36 l 44 0 l 242 0 l 242 135 b 444 -10 265 61 339 -10 b 697 315 582 -10 697 60 b 444 640 697 571 582 640 z m 410 57 b 242 315 332 57 242 113 b 410 574 242 518 332 574 b 556 315 528 574 556 461 b 410 57 556 168 531 57 z "},"c":{"ha":633,"x_min":0,"x_max":0,"o":"m 446 374 l 579 363 b 583 421 582 383 583 403 b 343 640 583 560 504 640 b 42 314 167 640 42 529 b 344 -10 42 104 161 -10 b 592 176 506 -10 569 110 l 564 188 b 376 65 542 139 488 65 b 169 321 247 65 169 154 b 338 574 169 485 233 574 b 454 453 414 574 454 531 b 446 374 454 429 451 403 z "},"ć":{"ha":633,"x_min":0,"x_max":0,"o":"m 426 833 l 351 922 b 189 714 318 844 279 776 l 196 700 b 426 833 297 719 372 772 z m 446 374 l 579 363 b 583 421 582 383 583 403 b 343 640 583 560 504 640 b 42 314 167 640 42 529 b 344 -10 42 104 161 -10 b 592 176 506 -10 569 110 l 564 188 b 376 65 542 139 488 65 b 169 321 247 65 169 154 b 338 574 169 485 233 574 b 454 453 414 574 454 531 b 446 374 454 429 451 403 z "},"č":{"ha":633,"x_min":0,"x_max":0,"o":"m 149 871 l 286 721 l 347 721 l 485 871 l 368 871 l 317 792 l 265 871 z m 446 374 l 579 363 b 583 421 582 383 583 403 b 343 640 583 560 504 640 b 42 314 167 640 42 529 b 344 -10 42 104 161 -10 b 592 176 506 -10 569 110 l 564 188 b 376 65 542 139 488 65 b 169 321 247 65 169 154 b 338 574 169 485 233 574 b 454 453 414 574 454 531 b 446 374 454 429 451 403 z "},"ç":{"ha":633,"x_min":0,"x_max":0,"o":"m 592 176 l 564 188 b 376 65 542 139 488 65 b 169 321 247 65 169 154 b 338 574 169 485 233 574 b 454 453 414 574 454 531 b 446 374 454 429 451 403 l 579 363 b 583 421 582 383 583 403 b 343 640 583 560 504 640 b 42 314 167 640 42 529 b 282 -6 42 129 135 19 l 236 -107 b 283 -103 251 -104 268 -103 b 361 -175 333 -103 361 -129 b 314 -226 361 -194 351 -226 b 274 -192 292 -226 274 -212 b 285 -153 274 -178 278 -165 l 211 -140 b 203 -187 204 -157 203 -174 b 313 -278 203 -236 244 -278 b 431 -165 385 -278 431 -235 b 340 -74 431 -100 385 -74 b 308 -78 328 -74 317 -75 l 368 -8 b 592 176 511 1 571 113 z "},"ċ":{"ha":633,"x_min":0,"x_max":0,"o":"m 217 828 l 315 728 l 415 828 l 315 926 z m 446 374 l 579 363 b 583 421 582 383 583 403 b 343 640 583 560 504 640 b 42 314 167 640 42 529 b 344 -10 42 104 161 -10 b 592 176 506 -10 569 110 l 564 188 b 376 65 542 139 488 65 b 169 321 247 65 169 154 b 338 574 169 485 233 574 b 454 453 414 574 454 531 b 446 374 454 429 451 403 z "},"d":{"ha":739,"x_min":0,"x_max":0,"o":"m 631 97 l 631 885 l 433 885 l 433 849 b 497 788 476 849 497 838 l 497 506 b 294 640 475 575 401 640 b 42 315 157 640 42 571 b 294 -10 42 60 157 -10 b 497 135 400 -10 474 61 l 497 0 l 694 0 l 694 36 b 631 97 651 36 631 47 z m 329 57 b 183 315 208 57 183 168 b 329 574 183 461 211 574 b 497 315 407 574 497 518 b 329 57 497 113 407 57 z "},"ð":{"ha":706,"x_min":0,"x_max":0,"o":"m 482 782 l 596 813 l 582 865 l 424 822 b 217 890 356 863 283 883 l 214 876 b 368 808 272 867 325 843 l 183 758 l 197 706 l 413 764 b 519 439 474 689 511 581 b 310 640 485 585 410 640 b 42 319 156 640 42 517 b 361 -7 42 106 201 -7 b 653 400 522 -7 653 107 b 482 782 653 578 579 703 z m 361 60 b 183 318 256 60 183 144 b 328 574 183 469 229 574 b 514 276 443 574 514 432 b 361 60 514 157 467 60 z "},"ď":{"ha":904,"x_min":0,"x_max":0,"o":"m 785 949 l 686 850 l 785 750 l 785 590 l 794 590 l 885 850 z m 631 97 l 631 885 l 433 885 l 433 849 b 497 788 476 849 497 838 l 497 506 b 294 640 475 575 401 640 b 42 315 157 640 42 571 b 294 -10 42 60 157 -10 b 497 135 400 -10 474 61 l 497 0 l 694 0 l 694 36 b 631 97 651 36 631 47 z m 329 57 b 183 315 208 57 183 168 b 329 574 183 461 211 574 b 497 315 407 574 497 518 b 329 57 497 113 407 57 z "},"đ":{"ha":739,"x_min":0,"x_max":0,"o":"m 701 738 l 701 792 l 631 792 l 631 885 l 433 885 l 433 849 b 497 792 475 849 496 838 l 289 792 l 289 738 l 497 738 l 497 506 b 294 640 475 575 401 640 b 42 315 157 640 42 571 b 294 -10 42 60 157 -10 b 497 135 400 -10 474 61 l 497 0 l 694 0 l 694 36 b 631 97 651 36 631 47 l 631 738 z m 329 57 b 183 315 208 57 183 168 b 329 574 183 461 211 574 b 497 315 407 574 497 518 b 329 57 497 113 407 57 z "},"e":{"ha":633,"x_min":0,"x_max":0,"o":"m 564 188 b 379 68 540 139 490 68 b 169 311 251 68 174 151 l 582 324 b 585 392 585 346 585 363 b 331 640 585 546 496 640 b 42 318 154 640 42 531 b 347 -10 42 100 164 -10 b 592 176 508 -10 569 110 z m 335 574 b 460 440 414 574 460 511 b 453 379 460 417 457 397 l 171 357 b 335 574 179 514 246 574 z "},"é":{"ha":633,"x_min":0,"x_max":0,"o":"m 426 833 l 351 922 b 189 714 318 844 279 776 l 196 700 b 426 833 297 719 372 772 z m 564 188 b 379 68 540 139 490 68 b 169 311 251 68 174 151 l 582 324 b 585 392 585 346 585 363 b 331 640 585 546 496 640 b 42 318 154 640 42 531 b 347 -10 42 100 164 -10 b 592 176 508 -10 569 110 z m 335 574 b 460 440 414 574 460 511 b 453 379 460 417 457 397 l 171 357 b 335 574 179 514 246 574 z "},"ě":{"ha":633,"x_min":0,"x_max":0,"o":"m 347 721 l 485 871 l 368 871 l 317 792 l 265 871 l 149 871 l 286 721 z m 564 188 b 379 68 540 139 490 68 b 169 311 251 68 174 151 l 582 324 b 585 392 585 346 585 363 b 331 640 585 546 496 640 b 42 318 154 640 42 531 b 347 -10 42 100 164 -10 b 592 176 508 -10 569 110 z m 335 574 b 460 440 414 574 460 511 b 453 379 460 417 457 397 l 171 357 b 335 574 179 514 246 574 z "},"ê":{"ha":633,"x_min":0,"x_max":0,"o":"m 317 828 l 368 749 l 485 749 l 347 899 l 286 899 l 149 749 l 265 749 z m 564 188 b 379 68 540 139 490 68 b 169 311 251 68 174 151 l 582 324 b 585 392 585 346 585 363 b 331 640 585 546 496 640 b 42 318 154 640 42 531 b 347 -10 42 100 164 -10 b 592 176 508 -10 569 110 z m 335 574 b 460 440 414 574 460 511 b 453 379 460 417 457 397 l 171 357 b 335 574 179 514 246 574 z "},"ë":{"ha":633,"x_min":0,"x_max":0,"o":"m 300 828 l 201 926 l 101 828 l 201 726 z m 532 828 l 433 926 l 333 828 l 433 726 z m 564 188 b 379 68 540 139 490 68 b 169 311 251 68 174 151 l 582 324 b 585 392 585 346 585 363 b 331 640 585 546 496 640 b 42 318 154 640 42 531 b 347 -10 42 100 164 -10 b 592 176 508 -10 569 110 z m 335 574 b 460 440 414 574 460 511 b 453 379 460 417 457 397 l 171 357 b 335 574 179 514 246 574 z "},"ė":{"ha":633,"x_min":0,"x_max":0,"o":"m 415 828 l 315 926 l 217 828 l 315 728 z m 564 188 b 379 68 540 139 490 68 b 169 311 251 68 174 151 l 582 324 b 585 392 585 346 585 363 b 331 640 585 546 496 640 b 42 318 154 640 42 531 b 347 -10 42 100 164 -10 b 592 176 508 -10 569 110 z m 335 574 b 460 440 414 574 460 511 b 453 379 460 417 457 397 l 171 357 b 335 574 179 514 246 574 z "},"è":{"ha":633,"x_min":0,"x_max":0,"o":"m 424 700 l 431 714 b 268 922 340 776 301 844 l 193 833 b 424 700 247 772 322 719 z m 564 188 b 379 68 540 139 490 68 b 169 311 251 68 174 151 l 582 324 b 585 392 585 346 585 363 b 331 640 585 546 496 640 b 42 318 154 640 42 531 b 347 -10 42 100 164 -10 b 592 176 508 -10 569 110 z m 335 574 b 460 440 414 574 460 511 b 453 379 460 417 457 397 l 171 357 b 335 574 179 514 246 574 z "},"ē":{"ha":633,"x_min":0,"x_max":0,"o":"m 522 792 l 110 792 l 110 738 l 522 738 z m 564 188 b 379 68 540 139 490 68 b 169 311 251 68 174 151 l 582 324 b 585 392 585 346 585 363 b 331 640 585 546 496 640 b 42 318 154 640 42 531 b 347 -10 42 100 164 -10 b 592 176 508 -10 569 110 z m 335 574 b 460 440 414 574 460 511 b 453 379 460 417 457 397 l 171 357 b 335 574 179 514 246 574 z "},"ę":{"ha":633,"x_min":0,"x_max":0,"o":"m 401 -6 b 592 176 522 18 572 118 l 564 188 b 379 68 540 139 490 68 b 169 311 251 68 174 151 l 582 324 b 585 392 585 346 585 363 b 331 640 585 546 496 640 b 42 318 154 640 42 531 b 331 -10 42 107 157 -3 b 235 -156 276 -47 235 -99 b 372 -268 235 -224 296 -268 b 475 -239 411 -268 443 -257 l 435 -149 b 364 -179 413 -168 393 -179 b 311 -126 326 -179 311 -156 b 401 -6 311 -83 351 -42 z m 335 574 b 460 440 414 574 460 511 b 453 379 460 417 457 397 l 171 357 b 335 574 179 514 246 574 z "},"f":{"ha":490,"x_min":0,"x_max":0,"o":"m 261 604 l 261 681 b 375 838 261 782 299 838 b 451 763 428 838 451 801 b 440 718 451 749 449 732 l 450 708 l 579 797 b 389 899 531 882 442 899 b 128 657 231 899 128 819 l 128 628 l 28 628 l 28 564 l 128 540 l 128 97 b 64 36 128 47 107 36 l 64 0 l 325 0 l 325 36 b 261 97 282 36 261 47 l 261 550 l 481 550 l 481 628 l 372 628 z "},"g":{"ha":661,"x_min":0,"x_max":0,"o":"m 617 628 l 392 628 b 301 640 365 636 335 640 b 50 419 142 640 50 540 b 169 226 50 336 93 264 l 61 189 b 168 43 50 113 94 56 l 32 -29 b 319 -235 17 -147 110 -235 b 611 -35 533 -235 611 -139 b 426 125 611 64 539 117 l 268 136 b 158 171 193 142 171 156 l 207 213 b 301 199 235 203 267 199 b 554 414 463 199 554 297 b 490 560 554 481 522 533 l 617 601 z m 304 264 b 188 419 221 264 188 326 b 304 575 188 511 221 575 b 421 419 386 575 421 511 b 304 264 421 326 386 264 z m 379 28 b 494 -64 458 22 494 -8 b 321 -176 494 -124 443 -176 b 138 -36 165 -176 121 -106 l 215 39 z "},"ğ":{"ha":661,"x_min":0,"x_max":0,"o":"m 324 735 b 460 885 397 735 464 775 l 353 885 b 324 772 375 811 364 772 b 293 885 281 772 271 811 l 186 885 b 324 735 182 785 249 735 z m 617 628 l 392 628 b 301 640 365 636 335 640 b 50 419 142 640 50 540 b 169 226 50 336 93 264 l 61 189 b 168 43 50 113 94 56 l 32 -29 b 319 -235 17 -147 110 -235 b 611 -35 533 -235 611 -139 b 426 125 611 64 539 117 l 268 136 b 158 171 193 142 171 156 l 207 213 b 301 199 235 203 267 199 b 554 414 463 199 554 297 b 490 560 554 481 522 533 l 617 601 z m 304 264 b 188 419 221 264 188 326 b 304 575 188 511 221 575 b 421 419 386 575 421 511 b 304 264 421 326 386 264 z m 379 28 b 494 -64 458 22 494 -8 b 321 -176 494 -124 443 -176 b 138 -36 165 -176 121 -106 l 215 39 z "},"ģ":{"ha":661,"x_min":0,"x_max":0,"o":"m 422 753 l 324 853 l 324 1013 l 314 1013 l 224 753 l 324 654 z m 617 628 l 392 628 b 301 640 365 636 335 640 b 50 419 142 640 50 540 b 169 226 50 336 93 264 l 61 189 b 168 43 50 113 94 56 l 32 -29 b 319 -235 17 -147 110 -235 b 611 -35 533 -235 611 -139 b 426 125 611 64 539 117 l 268 136 b 158 171 193 142 171 156 l 207 213 b 301 199 235 203 267 199 b 554 414 463 199 554 297 b 490 560 554 481 522 533 l 617 601 z m 304 264 b 188 419 221 264 188 326 b 304 575 188 511 221 575 b 421 419 386 575 421 511 b 304 264 421 326 386 264 z m 379 28 b 494 -64 458 22 494 -8 b 321 -176 494 -124 443 -176 b 138 -36 165 -176 121 -106 l 215 39 z "},"ġ":{"ha":661,"x_min":0,"x_max":0,"o":"m 422 828 l 322 926 l 224 828 l 322 728 z m 617 628 l 392 628 b 301 640 365 636 335 640 b 50 419 142 640 50 540 b 169 226 50 336 93 264 l 61 189 b 168 43 50 113 94 56 l 32 -29 b 319 -235 17 -147 110 -235 b 611 -35 533 -235 611 -139 b 426 125 611 64 539 117 l 268 136 b 158 171 193 142 171 156 l 207 213 b 301 199 235 203 267 199 b 554 414 463 199 554 297 b 490 560 554 481 522 533 l 617 601 z m 304 264 b 188 419 221 264 188 326 b 304 575 188 511 221 575 b 421 419 386 575 421 511 b 304 264 421 326 386 264 z m 379 28 b 494 -64 458 22 494 -8 b 321 -176 494 -124 443 -176 b 138 -36 165 -176 121 -106 l 215 39 z "},"h":{"ha":736,"x_min":0,"x_max":0,"o":"m 631 97 l 631 410 b 438 640 631 558 569 640 b 244 460 315 640 256 551 l 242 460 l 242 885 l 44 885 l 44 849 b 108 788 88 849 108 838 l 108 97 b 44 36 108 47 88 36 l 44 0 l 306 0 l 306 36 b 242 97 263 36 242 47 l 242 250 b 397 564 242 494 318 564 b 497 385 478 564 497 506 l 497 97 b 433 36 497 47 476 36 l 433 0 l 694 0 l 694 36 b 631 97 651 36 631 47 z "},"ħ":{"ha":736,"x_min":0,"x_max":0,"o":"m 631 97 l 631 410 b 438 640 631 558 569 640 b 244 460 315 640 256 551 l 242 460 l 242 738 l 457 738 l 457 792 l 242 792 l 242 885 l 44 885 l 44 849 b 108 792 86 849 107 838 l 44 792 l 44 738 l 108 738 l 108 97 b 44 36 108 47 88 36 l 44 0 l 306 0 l 306 36 b 242 97 263 36 242 47 l 242 250 b 397 564 242 494 318 564 b 497 385 478 564 497 506 l 497 97 b 433 36 497 47 476 36 l 433 0 l 694 0 l 694 36 b 631 97 651 36 631 47 z "},"i":{"ha":344,"x_min":0,"x_max":0,"o":"m 71 828 l 169 728 l 269 828 l 169 926 z m 239 97 l 239 628 l 42 628 l 42 592 b 106 531 85 592 106 581 l 106 97 b 42 36 106 47 85 36 l 42 0 l 303 0 l 303 36 b 239 97 260 36 239 47 z "},"ı":{"ha":344,"x_min":0,"x_max":0,"o":"m 239 97 l 239 628 l 42 628 l 42 592 b 106 531 85 592 106 581 l 106 97 b 42 36 106 47 85 36 l 42 0 l 303 0 l 303 36 b 239 97 260 36 239 47 z "},"í":{"ha":344,"x_min":0,"x_max":0,"o":"m 281 833 l 206 922 b 43 714 172 844 133 776 l 50 700 b 281 833 151 719 226 772 z m 239 97 l 239 628 l 42 628 l 42 592 b 106 531 85 592 106 581 l 106 97 b 42 36 106 47 85 36 l 42 0 l 303 0 l 303 36 b 239 97 260 36 239 47 z "},"î":{"ha":344,"x_min":0,"x_max":0,"o":"m 3 749 l 119 749 l 171 828 l 222 749 l 339 749 l 201 899 l 140 899 z m 239 97 l 239 628 l 42 628 l 42 592 b 106 531 85 592 106 581 l 106 97 b 42 36 106 47 85 36 l 42 0 l 303 0 l 303 36 b 239 97 260 36 239 47 z "},"ï":{"ha":344,"x_min":0,"x_max":0,"o":"m 56 726 l 154 828 l 56 926 l -44 828 z m 288 726 l 386 828 l 288 926 l 188 828 z m 239 97 l 239 628 l 42 628 l 42 592 b 106 531 85 592 106 581 l 106 97 b 42 36 106 47 85 36 l 42 0 l 303 0 l 303 36 b 239 97 260 36 239 47 z "},"ì":{"ha":344,"x_min":0,"x_max":0,"o":"m 47 833 b 278 700 101 772 176 719 l 285 714 b 122 922 194 776 156 844 z m 239 97 l 239 628 l 42 628 l 42 592 b 106 531 85 592 106 581 l 106 97 b 42 36 106 47 85 36 l 42 0 l 303 0 l 303 36 b 239 97 260 36 239 47 z "},"ī":{"ha":344,"x_min":0,"x_max":0,"o":"m -36 792 l -36 738 l 376 738 l 376 792 z m 239 97 l 239 628 l 42 628 l 42 592 b 106 531 85 592 106 581 l 106 97 b 42 36 106 47 85 36 l 42 0 l 303 0 l 303 36 b 239 97 260 36 239 47 z "},"į":{"ha":344,"x_min":0,"x_max":0,"o":"m 269 828 l 169 926 l 71 828 l 169 728 z m 218 0 l 303 0 l 303 36 b 239 97 260 36 239 47 l 239 628 l 42 628 l 42 592 b 106 531 85 592 106 581 l 106 97 b 42 36 106 47 85 36 l 42 0 l 156 0 b 46 -156 94 -39 46 -94 b 183 -268 46 -224 107 -268 b 286 -239 222 -268 254 -257 l 246 -149 b 175 -179 224 -168 204 -179 b 122 -126 138 -179 122 -156 b 218 0 122 -82 167 -39 z "},"j":{"ha":304,"x_min":0,"x_max":0,"o":"m 61 828 l 160 728 l 260 828 l 160 926 z m 228 628 l 31 628 l 31 592 b 94 531 74 592 94 581 l 94 0 l 67 -367 l 86 -367 l 228 -32 z "},"k":{"ha":715,"x_min":0,"x_max":0,"o":"m 597 82 l 440 321 l 342 325 l 539 542 b 682 592 579 586 639 592 l 682 628 l 396 628 l 396 592 b 458 556 483 592 492 593 l 242 318 l 242 885 l 44 885 l 44 849 b 108 788 88 849 108 838 l 108 97 b 44 36 108 47 88 36 l 44 0 l 306 0 l 306 36 b 242 97 263 36 242 47 l 242 214 l 315 294 l 517 0 l 704 0 l 704 36 b 597 82 667 36 625 39 z "},"ķ":{"ha":715,"x_min":0,"x_max":0,"o":"m 597 82 l 440 321 l 342 325 l 539 542 b 682 592 579 586 639 592 l 682 628 l 396 628 l 396 592 b 458 556 483 592 492 593 l 242 318 l 242 885 l 44 885 l 44 849 b 108 788 88 849 108 838 l 108 97 b 44 36 108 47 88 36 l 44 0 l 306 0 l 306 36 b 242 97 263 36 242 47 l 242 214 l 315 294 l 517 0 l 704 0 l 704 36 b 597 82 667 36 625 39 z m 242 -125 l 340 -225 l 340 -385 l 350 -385 l 440 -125 l 340 -26 z "},"l":{"ha":350,"x_min":0,"x_max":0,"o":"m 242 97 l 242 885 l 44 885 l 44 849 b 108 788 88 849 108 838 l 108 97 b 44 36 108 47 88 36 l 44 0 l 306 0 l 306 36 b 242 97 263 36 242 47 z "},"ĺ":{"ha":350,"x_min":0,"x_max":0,"o":"m 307 1069 l 232 1156 b 69 965 199 1078 160 1014 l 74 951 b 307 1069 178 957 264 1008 z m 242 97 l 242 885 l 44 885 l 44 849 b 108 788 88 849 108 838 l 108 97 b 44 36 108 47 88 36 l 44 0 l 306 0 l 306 36 b 242 97 263 36 242 47 z "},"ľ":{"ha":515,"x_min":0,"x_max":0,"o":"m 297 850 l 396 750 l 396 590 l 406 590 l 496 850 l 396 949 z m 242 97 l 242 885 l 44 885 l 44 849 b 108 788 88 849 108 838 l 108 97 b 44 36 108 47 88 36 l 44 0 l 306 0 l 306 36 b 242 97 263 36 242 47 z "},"ļ":{"ha":350,"x_min":0,"x_max":0,"o":"m 242 97 l 242 885 l 44 885 l 44 849 b 108 788 88 849 108 838 l 108 97 b 44 36 108 47 88 36 l 44 0 l 306 0 l 306 36 b 242 97 263 36 242 47 z m 78 -125 l 176 -225 l 176 -385 l 186 -385 l 276 -125 l 176 -26 z "},"ł":{"ha":457,"x_min":0,"x_max":0,"o":"m 296 97 l 296 476 l 413 576 l 368 628 l 296 567 l 296 885 l 99 885 l 99 849 b 163 788 142 849 163 838 l 163 453 l 44 351 l 89 300 l 163 363 l 163 97 b 99 36 163 47 142 36 l 99 0 l 360 0 l 360 36 b 296 97 317 36 296 47 z "},"m":{"ha":1119,"x_min":0,"x_max":0,"o":"m 1014 97 l 1014 410 b 821 640 1014 558 953 640 b 628 460 699 640 639 551 l 622 460 b 439 640 610 578 549 640 b 247 465 306 640 257 540 l 244 465 l 244 628 l 47 628 l 47 592 b 111 531 90 592 111 581 l 111 97 b 47 36 111 47 90 36 l 47 0 l 308 0 l 308 36 b 244 97 265 36 244 47 l 244 250 b 392 564 244 514 324 564 b 492 385 474 564 492 501 l 492 97 b 428 36 492 47 471 36 l 428 0 l 689 0 l 689 36 b 625 97 646 36 625 47 l 625 250 b 781 564 625 494 701 564 b 881 385 861 564 881 506 l 881 97 b 817 36 881 47 860 36 l 817 0 l 1078 0 l 1078 36 b 1014 97 1035 36 1014 47 z "},"n":{"ha":739,"x_min":0,"x_max":0,"o":"m 633 97 l 633 410 b 440 640 633 558 572 640 b 247 460 318 640 258 551 l 244 460 l 244 628 l 47 628 l 47 592 b 111 531 90 592 111 581 l 111 97 b 47 36 111 47 90 36 l 47 0 l 308 0 l 308 36 b 244 97 265 36 244 47 l 244 250 b 400 564 244 494 321 564 b 500 385 481 564 500 506 l 500 97 b 436 36 500 47 479 36 l 436 0 l 697 0 l 697 36 b 633 97 654 36 633 47 z "},"ń":{"ha":739,"x_min":0,"x_max":0,"o":"m 482 833 l 407 922 b 244 714 374 844 335 776 l 251 700 b 482 833 353 719 428 772 z m 633 97 l 633 410 b 440 640 633 558 572 640 b 247 460 318 640 258 551 l 244 460 l 244 628 l 47 628 l 47 592 b 111 531 90 592 111 581 l 111 97 b 47 36 111 47 90 36 l 47 0 l 308 0 l 308 36 b 244 97 265 36 244 47 l 244 250 b 400 564 244 494 321 564 b 500 385 481 564 500 506 l 500 97 b 436 36 500 47 479 36 l 436 0 l 697 0 l 697 36 b 633 97 654 36 633 47 z "},"ň":{"ha":739,"x_min":0,"x_max":0,"o":"m 403 721 l 540 871 l 424 871 l 372 792 l 321 871 l 204 871 l 342 721 z m 633 97 l 633 410 b 440 640 633 558 572 640 b 247 460 318 640 258 551 l 244 460 l 244 628 l 47 628 l 47 592 b 111 531 90 592 111 581 l 111 97 b 47 36 111 47 90 36 l 47 0 l 308 0 l 308 36 b 244 97 265 36 244 47 l 244 250 b 400 564 244 494 321 564 b 500 385 481 564 500 506 l 500 97 b 436 36 500 47 479 36 l 436 0 l 697 0 l 697 36 b 633 97 654 36 633 47 z "},"ņ":{"ha":739,"x_min":0,"x_max":0,"o":"m 633 97 l 633 410 b 440 640 633 558 572 640 b 247 460 318 640 258 551 l 244 460 l 244 628 l 47 628 l 47 592 b 111 531 90 592 111 581 l 111 97 b 47 36 111 47 90 36 l 47 0 l 308 0 l 308 36 b 244 97 265 36 244 47 l 244 250 b 400 564 244 494 321 564 b 500 385 481 564 500 506 l 500 97 b 436 36 500 47 479 36 l 436 0 l 697 0 l 697 36 b 633 97 654 36 633 47 z m 272 -125 l 371 -225 l 371 -385 l 381 -385 l 471 -125 l 371 -26 z "},"ŋ":{"ha":717,"x_min":0,"x_max":0,"o":"m 440 640 b 244 485 329 640 263 567 l 244 628 l 47 628 l 47 592 b 111 531 90 592 111 581 l 111 97 b 47 36 111 47 90 36 l 47 0 l 308 0 l 308 36 b 244 97 265 36 244 47 l 244 250 b 400 564 244 494 321 564 b 500 385 481 564 500 506 l 500 -183 b 476 -214 500 -206 492 -214 b 428 -131 454 -214 439 -182 l 294 -174 b 475 -268 335 -244 399 -268 b 633 -118 582 -268 633 -224 l 633 410 b 440 640 633 558 572 640 z "},"ñ":{"ha":739,"x_min":0,"x_max":0,"o":"m 296 771 b 425 743 343 771 371 743 b 533 814 461 743 497 771 l 521 831 b 450 804 503 821 482 804 b 319 832 403 804 374 832 b 213 746 283 832 249 803 l 224 735 b 296 771 243 754 264 771 z m 633 97 l 633 410 b 440 640 633 558 572 640 b 247 460 318 640 258 551 l 244 460 l 244 628 l 47 628 l 47 592 b 111 531 90 592 111 581 l 111 97 b 47 36 111 47 90 36 l 47 0 l 308 0 l 308 36 b 244 97 265 36 244 47 l 244 250 b 400 564 244 494 321 564 b 500 385 481 564 500 506 l 500 97 b 436 36 500 47 479 36 l 436 0 l 697 0 l 697 36 b 633 97 654 36 633 47 z "},"o":{"ha":683,"x_min":0,"x_max":0,"o":"m 342 640 b 42 315 151 640 42 513 b 342 -10 42 118 151 -10 b 642 315 532 -10 642 118 b 342 640 642 513 532 640 z m 342 57 b 183 315 226 57 183 168 b 342 574 183 463 226 574 b 500 315 457 574 500 463 b 342 57 500 168 457 57 z "},"ó":{"ha":683,"x_min":0,"x_max":0,"o":"m 451 833 l 376 922 b 214 714 343 844 304 776 l 221 700 b 451 833 322 719 397 772 z m 342 640 b 42 315 151 640 42 513 b 342 -10 42 118 151 -10 b 642 315 532 -10 642 118 b 342 640 642 513 532 640 z m 342 57 b 183 315 226 57 183 168 b 342 574 183 463 226 574 b 500 315 457 574 500 463 b 342 57 500 168 457 57 z "},"ô":{"ha":683,"x_min":0,"x_max":0,"o":"m 174 749 l 290 749 l 342 828 l 393 749 l 510 749 l 372 899 l 311 899 z m 342 640 b 42 315 151 640 42 513 b 342 -10 42 118 151 -10 b 642 315 532 -10 642 118 b 342 640 642 513 532 640 z m 342 57 b 183 315 226 57 183 168 b 342 574 183 463 226 574 b 500 315 457 574 500 463 b 342 57 500 168 457 57 z "},"ö":{"ha":683,"x_min":0,"x_max":0,"o":"m 226 726 l 325 828 l 226 926 l 126 828 z m 458 726 l 557 828 l 458 926 l 358 828 z m 342 640 b 42 315 151 640 42 513 b 342 -10 42 118 151 -10 b 642 315 532 -10 642 118 b 342 640 642 513 532 640 z m 342 57 b 183 315 226 57 183 168 b 342 574 183 463 226 574 b 500 315 457 574 500 463 b 342 57 500 168 457 57 z "},"ò":{"ha":683,"x_min":0,"x_max":0,"o":"m 218 833 b 449 700 272 772 347 719 l 456 714 b 293 922 365 776 326 844 z m 342 640 b 42 315 151 640 42 513 b 342 -10 42 118 151 -10 b 642 315 532 -10 642 118 b 342 640 642 513 532 640 z m 342 57 b 183 315 226 57 183 168 b 342 574 183 463 226 574 b 500 315 457 574 500 463 b 342 57 500 168 457 57 z "},"ő":{"ha":683,"x_min":0,"x_max":0,"o":"m 351 897 l 251 897 l 251 711 l 275 711 z m 488 897 l 389 897 l 389 711 l 411 711 z m 342 640 b 42 315 151 640 42 513 b 342 -10 42 118 151 -10 b 642 315 532 -10 642 118 b 342 640 642 513 532 640 z m 342 57 b 183 315 226 57 183 168 b 342 574 183 463 226 574 b 500 315 457 574 500 463 b 342 57 500 168 457 57 z "},"ō":{"ha":683,"x_min":0,"x_max":0,"o":"m 135 792 l 135 738 l 547 738 l 547 792 z m 342 640 b 42 315 151 640 42 513 b 342 -10 42 118 151 -10 b 642 315 532 -10 642 118 b 342 640 642 513 532 640 z m 342 57 b 183 315 226 57 183 168 b 342 574 183 463 226 574 b 500 315 457 574 500 463 b 342 57 500 168 457 57 z "},"ø":{"ha":683,"x_min":0,"x_max":0,"o":"m 488 608 l 519 696 l 446 722 l 414 633 b 342 640 392 638 367 640 b 42 315 151 640 42 513 b 192 24 42 178 94 74 l 165 -49 l 238 -76 l 265 -1 b 342 -10 289 -7 314 -10 b 642 315 532 -10 642 118 b 488 608 642 454 588 560 z m 183 315 b 342 574 183 463 226 574 b 389 567 360 574 375 571 l 226 119 b 183 315 196 165 183 235 z m 342 57 b 289 67 322 57 306 60 l 454 517 b 500 315 486 469 500 399 b 342 57 500 168 457 57 z "},"õ":{"ha":683,"x_min":0,"x_max":0,"o":"m 182 746 l 193 735 b 265 771 213 754 233 771 b 394 743 313 771 340 743 b 503 814 431 743 467 771 l 490 831 b 419 804 472 821 451 804 b 289 832 372 804 343 832 b 182 746 253 832 218 803 z m 342 640 b 42 315 151 640 42 513 b 342 -10 42 118 151 -10 b 642 315 532 -10 642 118 b 342 640 642 513 532 640 z m 342 57 b 183 315 226 57 183 168 b 342 574 183 463 226 574 b 500 315 457 574 500 463 b 342 57 500 168 457 57 z "},"œ":{"ha":1094,"x_min":0,"x_max":0,"o":"m 42 315 b 342 -10 42 117 151 -10 b 569 125 442 -10 518 25 b 806 -10 624 22 706 -10 b 1053 176 967 -10 1029 110 l 1019 188 b 851 68 997 139 963 68 b 643 297 729 68 651 150 l 1040 324 b 1043 392 1043 343 1043 360 b 803 640 1043 546 968 640 b 569 504 706 640 624 608 b 342 640 518 606 442 640 b 42 315 151 640 42 513 z m 183 315 b 342 574 183 463 226 574 b 499 315 458 574 499 463 b 342 57 499 167 458 57 b 183 315 226 57 183 167 z m 642 347 b 807 574 647 515 715 574 b 918 440 886 574 918 511 b 911 379 918 417 915 396 z "},"p":{"ha":700,"x_min":0,"x_max":0,"o":"m 413 640 b 210 506 306 640 232 575 l 210 628 l 13 628 l 13 592 b 76 531 56 592 76 581 l 76 -172 b 13 -233 76 -222 56 -233 l 13 -269 l 210 -269 l 210 135 b 413 -10 233 61 307 -10 b 665 315 550 -10 665 60 b 413 640 665 571 550 640 z m 378 57 b 210 315 300 57 210 113 b 378 574 210 518 300 574 b 524 315 496 574 524 461 b 378 57 524 168 499 57 z "},"þ":{"ha":757,"x_min":0,"x_max":0,"o":"m 469 640 b 267 506 363 640 289 575 l 267 885 l 69 885 l 69 849 b 133 788 113 849 133 838 l 133 -172 b 69 -233 133 -222 113 -233 l 69 -269 l 267 -269 l 267 135 b 469 -10 290 61 364 -10 b 722 315 607 -10 722 60 b 469 640 722 571 607 640 z m 435 57 b 267 315 357 57 267 113 b 435 574 267 518 357 574 b 581 315 553 574 581 461 b 435 57 581 168 556 57 z "},"q":{"ha":700,"x_min":0,"x_max":0,"o":"m 688 592 l 688 628 l 490 628 l 490 506 b 288 640 468 575 394 640 b 35 315 150 640 35 571 b 288 -10 35 60 150 -10 b 490 135 393 -10 467 61 l 490 -269 l 688 -269 l 688 -233 b 624 -172 644 -233 624 -222 l 624 531 b 688 592 624 581 644 592 z m 322 57 b 176 315 201 57 176 168 b 322 574 176 461 204 574 b 490 315 400 574 490 518 b 322 57 490 113 400 57 z "},"r":{"ha":560,"x_min":0,"x_max":0,"o":"m 432 636 b 247 406 311 636 265 510 l 244 406 l 244 628 l 47 628 l 47 592 b 111 531 90 592 111 581 l 111 97 b 47 36 111 47 90 36 l 47 0 l 308 0 l 308 36 b 244 97 265 36 244 47 l 244 186 b 406 535 244 458 322 535 b 492 457 461 535 493 496 l 507 453 l 553 581 b 432 636 529 617 482 636 z "},"ŕ":{"ha":560,"x_min":0,"x_max":0,"o":"m 421 833 l 346 922 b 183 714 313 844 274 776 l 190 700 b 421 833 292 719 367 772 z m 432 636 b 247 406 311 636 265 510 l 244 406 l 244 628 l 47 628 l 47 592 b 111 531 90 592 111 581 l 111 97 b 47 36 111 47 90 36 l 47 0 l 308 0 l 308 36 b 244 97 265 36 244 47 l 244 186 b 406 535 244 458 322 535 b 492 457 461 535 493 496 l 507 453 l 553 581 b 432 636 529 617 482 636 z "},"ř":{"ha":560,"x_min":0,"x_max":0,"o":"m 342 721 l 479 871 l 363 871 l 311 792 l 260 871 l 143 871 l 281 721 z m 432 636 b 247 406 311 636 265 510 l 244 406 l 244 628 l 47 628 l 47 592 b 111 531 90 592 111 581 l 111 97 b 47 36 111 47 90 36 l 47 0 l 308 0 l 308 36 b 244 97 265 36 244 47 l 244 186 b 406 535 244 458 322 535 b 492 457 461 535 493 496 l 507 453 l 553 581 b 432 636 529 617 482 636 z "},"ŗ":{"ha":560,"x_min":0,"x_max":0,"o":"m 432 636 b 247 406 311 636 265 510 l 244 406 l 244 628 l 47 628 l 47 592 b 111 531 90 592 111 581 l 111 97 b 47 36 111 47 90 36 l 47 0 l 308 0 l 308 36 b 244 97 265 36 244 47 l 244 186 b 406 535 244 458 322 535 b 492 457 461 535 493 496 l 507 453 l 553 581 b 432 636 529 617 482 636 z m 82 -125 l 181 -225 l 181 -385 l 190 -385 l 281 -125 l 181 -26 z "},"s":{"ha":557,"x_min":0,"x_max":0,"o":"m 368 364 l 261 393 b 168 479 183 414 168 438 b 289 574 168 536 221 574 b 481 407 386 574 442 513 l 504 410 l 490 574 b 289 640 442 615 367 640 b 49 449 135 640 49 557 b 189 293 49 369 97 317 l 313 261 b 401 164 371 246 401 215 b 274 57 401 94 351 57 b 58 264 163 57 86 122 l 35 264 l 35 90 b 278 -10 69 46 144 -10 b 521 176 379 -10 521 17 b 368 364 521 257 492 331 z "},"ś":{"ha":557,"x_min":0,"x_max":0,"o":"m 388 833 l 313 922 b 150 714 279 844 240 776 l 157 700 b 388 833 258 719 333 772 z m 368 364 l 261 393 b 168 479 183 414 168 438 b 289 574 168 536 221 574 b 481 407 386 574 442 513 l 504 410 l 490 574 b 289 640 442 615 367 640 b 49 449 135 640 49 557 b 189 293 49 369 97 317 l 313 261 b 401 164 371 246 401 215 b 274 57 401 94 351 57 b 58 264 163 57 86 122 l 35 264 l 35 90 b 278 -10 69 46 144 -10 b 521 176 379 -10 521 17 b 368 364 521 257 492 331 z "},"š":{"ha":557,"x_min":0,"x_max":0,"o":"m 110 871 l 247 721 l 308 721 l 446 871 l 329 871 l 278 792 l 226 871 z m 368 364 l 261 393 b 168 479 183 414 168 438 b 289 574 168 536 221 574 b 481 407 386 574 442 513 l 504 410 l 490 574 b 289 640 442 615 367 640 b 49 449 135 640 49 557 b 189 293 49 369 97 317 l 313 261 b 401 164 371 246 401 215 b 274 57 401 94 351 57 b 58 264 163 57 86 122 l 35 264 l 35 90 b 278 -10 69 46 144 -10 b 521 176 379 -10 521 17 b 368 364 521 257 492 331 z "},"ş":{"ha":557,"x_min":0,"x_max":0,"o":"m 521 176 b 368 364 521 257 492 331 l 261 393 b 168 479 183 414 168 438 b 289 574 168 536 221 574 b 481 407 386 574 442 513 l 504 410 l 490 574 b 289 640 442 615 367 640 b 49 449 135 640 49 557 b 189 293 49 369 97 317 l 313 261 b 401 164 371 246 401 215 b 274 57 401 94 351 57 b 58 264 163 57 86 122 l 35 264 l 35 90 b 242 -8 67 50 131 1 l 197 -107 b 244 -103 213 -104 229 -103 b 322 -175 294 -103 322 -129 b 275 -226 322 -194 313 -226 b 235 -192 253 -226 235 -212 b 246 -153 235 -178 239 -165 l 172 -140 b 164 -187 165 -157 164 -174 b 274 -278 164 -236 206 -278 b 392 -165 346 -278 392 -235 b 301 -74 392 -100 346 -74 b 269 -78 289 -74 278 -75 l 331 -7 b 521 176 422 3 521 43 z "},"ș":{"ha":557,"x_min":0,"x_max":0,"o":"m 368 364 l 261 393 b 168 479 183 414 168 438 b 289 574 168 536 221 574 b 481 407 386 574 442 513 l 504 410 l 490 574 b 289 640 442 615 367 640 b 49 449 135 640 49 557 b 189 293 49 369 97 317 l 313 261 b 401 164 371 246 401 215 b 274 57 401 94 351 57 b 58 264 163 57 86 122 l 35 264 l 35 90 b 278 -10 69 46 144 -10 b 521 176 379 -10 521 17 b 368 364 521 257 492 331 z m 178 -125 l 276 -225 l 276 -385 l 286 -385 l 376 -125 l 276 -26 z "},"ß":{"ha":818,"x_min":0,"x_max":0,"o":"m 483 478 l 743 656 b 476 899 757 804 657 899 b 169 628 286 899 169 769 l 69 628 l 69 564 l 169 540 l 169 97 b 93 36 169 47 144 36 l 93 0 l 308 0 l 308 642 b 481 818 308 749 390 818 b 613 692 556 818 619 779 l 450 479 l 397 469 l 397 446 l 408 446 b 646 244 585 446 646 354 b 472 8 646 128 563 19 l 474 -1 b 790 240 663 -1 790 92 b 483 478 790 397 660 469 z "},"t":{"ha":514,"x_min":0,"x_max":0,"o":"m 479 550 l 479 628 l 371 628 l 258 604 l 258 821 l 211 821 b 22 604 200 693 150 621 l 22 550 l 125 550 l 125 189 b 300 -10 125 61 188 -10 b 469 179 453 -10 468 114 l 442 179 b 353 75 436 132 418 75 b 258 181 294 75 258 114 l 258 550 z "},"ŧ":{"ha":514,"x_min":0,"x_max":0,"o":"m 479 550 l 479 628 l 371 628 l 258 604 l 258 821 l 211 821 b 22 604 200 693 150 621 l 22 550 l 125 550 l 125 424 l 39 424 l 39 369 l 125 369 l 125 189 b 300 -10 125 61 188 -10 b 469 179 453 -10 468 114 l 442 179 b 353 75 436 132 418 75 b 258 181 294 75 258 114 l 258 369 l 451 369 l 451 424 l 258 424 l 258 550 z "},"ť":{"ha":514,"x_min":0,"x_max":0,"o":"m 386 688 l 396 688 l 479 850 l 386 949 l 294 850 l 386 778 z m 258 604 l 258 821 l 211 821 b 22 604 200 693 150 621 l 22 550 l 125 550 l 125 189 b 300 -10 125 61 188 -10 b 469 179 453 -10 468 114 l 442 179 b 353 75 436 132 418 75 b 258 181 294 75 258 114 l 258 550 l 479 550 l 479 628 l 371 628 z "},"ţ":{"ha":514,"x_min":0,"x_max":0,"o":"m 479 550 l 479 628 l 371 628 l 258 604 l 258 821 l 211 821 b 22 604 200 693 150 621 l 22 550 l 125 550 l 125 189 b 250 -4 125 82 169 14 l 204 -107 b 251 -103 219 -104 236 -103 b 329 -175 301 -103 329 -129 b 282 -226 329 -194 319 -226 b 242 -192 260 -226 242 -212 b 253 -153 242 -178 246 -165 l 179 -140 b 171 -187 172 -157 171 -174 b 281 -278 171 -236 213 -278 b 399 -165 353 -278 399 -235 b 308 -74 399 -100 353 -74 b 276 -78 296 -74 285 -75 l 338 -7 b 469 179 456 11 468 119 l 442 179 b 353 75 436 132 418 75 b 258 181 294 75 258 114 l 258 550 z "},"ț":{"ha":514,"x_min":0,"x_max":0,"o":"m 479 550 l 479 628 l 371 628 l 258 604 l 258 821 l 211 821 b 22 604 200 693 150 621 l 22 550 l 125 550 l 125 189 b 300 -10 125 61 188 -10 b 469 179 453 -10 468 114 l 442 179 b 353 75 436 132 418 75 b 258 181 294 75 258 114 l 258 550 z m 185 -125 l 283 -225 l 283 -385 l 293 -385 l 383 -125 l 283 -26 z "},"u":{"ha":701,"x_min":0,"x_max":0,"o":"m 593 97 l 593 628 l 396 628 l 396 592 b 460 531 439 592 460 581 l 460 381 b 308 67 460 136 388 67 b 208 246 228 67 208 125 l 208 628 l 11 628 l 11 592 b 75 531 54 592 75 581 l 75 207 b 268 -10 75 58 136 -10 b 460 146 379 -10 442 64 l 460 0 l 657 0 l 657 36 b 593 97 614 36 593 47 z "},"ú":{"ha":701,"x_min":0,"x_max":0,"o":"m 442 833 l 367 922 b 204 714 333 844 294 776 l 211 700 b 442 833 313 719 388 772 z m 593 97 l 593 628 l 396 628 l 396 592 b 460 531 439 592 460 581 l 460 381 b 308 67 460 136 388 67 b 208 246 228 67 208 125 l 208 628 l 11 628 l 11 592 b 75 531 54 592 75 581 l 75 207 b 268 -10 75 58 136 -10 b 460 146 379 -10 442 64 l 460 0 l 657 0 l 657 36 b 593 97 614 36 593 47 z "},"û":{"ha":701,"x_min":0,"x_max":0,"o":"m 332 828 l 383 749 l 500 749 l 363 899 l 301 899 l 164 749 l 281 749 z m 593 97 l 593 628 l 396 628 l 396 592 b 460 531 439 592 460 581 l 460 381 b 308 67 460 136 388 67 b 208 246 228 67 208 125 l 208 628 l 11 628 l 11 592 b 75 531 54 592 75 581 l 75 207 b 268 -10 75 58 136 -10 b 460 146 379 -10 442 64 l 460 0 l 657 0 l 657 36 b 593 97 614 36 593 47 z "},"ü":{"ha":701,"x_min":0,"x_max":0,"o":"m 315 828 l 217 926 l 117 828 l 217 726 z m 547 828 l 449 926 l 349 828 l 449 726 z m 593 97 l 593 628 l 396 628 l 396 592 b 460 531 439 592 460 581 l 460 381 b 308 67 460 136 388 67 b 208 246 228 67 208 125 l 208 628 l 11 628 l 11 592 b 75 531 54 592 75 581 l 75 207 b 268 -10 75 58 136 -10 b 460 146 379 -10 442 64 l 460 0 l 657 0 l 657 36 b 593 97 614 36 593 47 z "},"ù":{"ha":701,"x_min":0,"x_max":0,"o":"m 439 700 l 446 714 b 283 922 356 776 317 844 l 208 833 b 439 700 263 772 338 719 z m 593 97 l 593 628 l 396 628 l 396 592 b 460 531 439 592 460 581 l 460 381 b 308 67 460 136 388 67 b 208 246 228 67 208 125 l 208 628 l 11 628 l 11 592 b 75 531 54 592 75 581 l 75 207 b 268 -10 75 58 136 -10 b 460 146 379 -10 442 64 l 460 0 l 657 0 l 657 36 b 593 97 614 36 593 47 z "},"ű":{"ha":701,"x_min":0,"x_max":0,"o":"m 342 897 l 242 897 l 242 711 l 265 711 z m 478 897 l 379 897 l 379 711 l 401 711 z m 593 97 l 593 628 l 396 628 l 396 592 b 460 531 439 592 460 581 l 460 381 b 308 67 460 136 388 67 b 208 246 228 67 208 125 l 208 628 l 11 628 l 11 592 b 75 531 54 592 75 581 l 75 207 b 268 -10 75 58 136 -10 b 460 146 379 -10 442 64 l 460 0 l 657 0 l 657 36 b 593 97 614 36 593 47 z "},"ū":{"ha":701,"x_min":0,"x_max":0,"o":"m 538 792 l 125 792 l 125 738 l 538 738 z m 593 97 l 593 628 l 396 628 l 396 592 b 460 531 439 592 460 581 l 460 381 b 308 67 460 136 388 67 b 208 246 228 67 208 125 l 208 628 l 11 628 l 11 592 b 75 531 54 592 75 581 l 75 207 b 268 -10 75 58 136 -10 b 460 146 379 -10 442 64 l 460 0 l 657 0 l 657 36 b 593 97 614 36 593 47 z "},"ų":{"ha":701,"x_min":0,"x_max":0,"o":"m 593 97 l 593 628 l 396 628 l 396 592 b 460 531 439 592 460 581 l 460 381 b 308 67 460 136 388 67 b 208 246 228 67 208 125 l 208 628 l 11 628 l 11 592 b 75 531 54 592 75 581 l 75 207 b 268 -10 75 58 136 -10 b 460 146 379 -10 442 64 l 460 4 b 342 -156 394 -35 342 -92 b 479 -268 342 -224 403 -268 b 582 -239 518 -268 550 -257 l 542 -149 b 471 -179 519 -168 500 -179 b 418 -126 433 -179 418 -156 b 514 0 418 -82 463 -39 l 657 0 l 657 36 b 593 97 614 36 593 47 z "},"ů":{"ha":701,"x_min":0,"x_max":0,"o":"m 332 739 b 413 819 376 739 413 775 b 332 899 413 864 376 899 b 251 819 288 899 251 864 b 332 739 251 775 288 739 z m 332 843 b 357 819 346 843 357 833 b 332 793 357 806 346 793 b 307 819 318 793 307 806 b 332 843 307 833 318 843 z m 593 97 l 593 628 l 396 628 l 396 592 b 460 531 439 592 460 581 l 460 381 b 308 67 460 136 388 67 b 208 246 228 67 208 125 l 208 628 l 11 628 l 11 592 b 75 531 54 592 75 581 l 75 207 b 268 -10 75 58 136 -10 b 460 146 379 -10 442 64 l 460 0 l 657 0 l 657 36 b 593 97 614 36 593 47 z "},"v":{"ha":656,"x_min":0,"x_max":0,"o":"m 647 628 l 381 628 l 381 592 b 475 533 463 592 488 582 l 358 89 l 210 628 l 11 628 l 11 592 b 101 535 54 592 88 583 l 250 0 l 415 0 l 558 533 b 647 592 571 583 604 592 z "},"w":{"ha":1064,"x_min":0,"x_max":0,"o":"m 1056 628 l 792 628 l 792 592 b 883 533 871 592 896 582 l 764 69 l 593 628 l 396 628 l 396 592 b 488 535 439 592 474 583 l 513 453 l 361 65 l 211 628 l 14 628 l 14 592 b 103 533 57 592 90 583 l 247 0 l 424 0 l 550 329 l 651 0 l 828 0 l 967 533 b 1056 592 981 582 1013 592 z "},"ẃ":{"ha":1064,"x_min":0,"x_max":0,"o":"m 644 833 l 569 922 b 407 714 536 844 497 776 l 414 700 b 644 833 515 719 590 772 z m 1056 628 l 792 628 l 792 592 b 883 533 871 592 896 582 l 764 69 l 593 628 l 396 628 l 396 592 b 488 535 439 592 474 583 l 513 453 l 361 65 l 211 628 l 14 628 l 14 592 b 103 533 57 592 90 583 l 247 0 l 424 0 l 550 329 l 651 0 l 828 0 l 967 533 b 1056 592 981 582 1013 592 z "},"ŵ":{"ha":1064,"x_min":0,"x_max":0,"o":"m 535 828 l 586 749 l 703 749 l 565 899 l 504 899 l 367 749 l 483 749 z m 1056 628 l 792 628 l 792 592 b 883 533 871 592 896 582 l 764 69 l 593 628 l 396 628 l 396 592 b 488 535 439 592 474 583 l 513 453 l 361 65 l 211 628 l 14 628 l 14 592 b 103 533 57 592 90 583 l 247 0 l 424 0 l 550 329 l 651 0 l 828 0 l 967 533 b 1056 592 981 582 1013 592 z "},"ẅ":{"ha":1064,"x_min":0,"x_max":0,"o":"m 518 828 l 419 926 l 319 828 l 419 726 z m 750 828 l 651 926 l 551 828 l 651 726 z m 1056 628 l 792 628 l 792 592 b 883 533 871 592 896 582 l 764 69 l 593 628 l 396 628 l 396 592 b 488 535 439 592 474 583 l 513 453 l 361 65 l 211 628 l 14 628 l 14 592 b 103 533 57 592 90 583 l 247 0 l 424 0 l 550 329 l 651 0 l 828 0 l 967 533 b 1056 592 981 582 1013 592 z "},"ẁ":{"ha":1064,"x_min":0,"x_max":0,"o":"m 642 700 l 649 714 b 486 922 558 776 519 844 l 411 833 b 642 700 465 772 540 719 z m 1056 628 l 792 628 l 792 592 b 883 533 871 592 896 582 l 764 69 l 593 628 l 396 628 l 396 592 b 488 535 439 592 474 583 l 513 453 l 361 65 l 211 628 l 14 628 l 14 592 b 103 533 57 592 90 583 l 247 0 l 424 0 l 550 329 l 651 0 l 828 0 l 967 533 b 1056 592 981 582 1013 592 z "},"x":{"ha":682,"x_min":0,"x_max":0,"o":"m 668 592 l 668 628 l 397 628 l 397 592 b 458 547 476 592 486 589 l 363 401 l 226 628 l 15 628 l 15 592 b 129 544 58 592 103 588 l 275 300 l 132 81 b 14 36 103 39 57 36 l 14 0 l 283 0 l 283 36 b 222 81 204 36 194 39 l 318 228 l 454 0 l 667 0 l 667 36 b 553 83 624 36 579 40 l 406 329 l 550 547 b 668 592 578 589 625 592 z "},"y":{"ha":729,"x_min":0,"x_max":0,"o":"m 721 628 l 432 628 l 432 592 b 543 535 529 592 560 583 l 397 88 l 222 628 l 18 628 l 18 592 b 113 535 61 592 96 583 l 286 0 l 369 0 l 332 -114 b 243 -212 307 -190 285 -212 b 175 -106 206 -212 167 -181 l 56 -96 b 232 -283 43 -199 97 -283 b 415 -114 322 -283 371 -254 l 626 535 b 721 592 643 583 678 592 z "},"ý":{"ha":729,"x_min":0,"x_max":0,"o":"m 479 833 l 404 922 b 242 714 371 844 332 776 l 249 700 b 479 833 350 719 425 772 z m 721 628 l 432 628 l 432 592 b 543 535 529 592 560 583 l 397 88 l 222 628 l 18 628 l 18 592 b 113 535 61 592 96 583 l 286 0 l 369 0 l 332 -114 b 243 -212 307 -190 285 -212 b 175 -106 206 -212 167 -181 l 56 -96 b 232 -283 43 -199 97 -283 b 415 -114 322 -283 371 -254 l 626 535 b 721 592 643 583 678 592 z "},"ŷ":{"ha":729,"x_min":0,"x_max":0,"o":"m 369 828 l 421 749 l 538 749 l 400 899 l 339 899 l 201 749 l 318 749 z m 721 628 l 432 628 l 432 592 b 543 535 529 592 560 583 l 397 88 l 222 628 l 18 628 l 18 592 b 113 535 61 592 96 583 l 286 0 l 369 0 l 332 -114 b 243 -212 307 -190 285 -212 b 175 -106 206 -212 167 -181 l 56 -96 b 232 -283 43 -199 97 -283 b 415 -114 322 -283 371 -254 l 626 535 b 721 592 643 583 678 592 z "},"ÿ":{"ha":729,"x_min":0,"x_max":0,"o":"m 353 828 l 254 926 l 154 828 l 254 726 z m 585 828 l 486 926 l 386 828 l 486 726 z m 721 628 l 432 628 l 432 592 b 543 535 529 592 560 583 l 397 88 l 222 628 l 18 628 l 18 592 b 113 535 61 592 96 583 l 286 0 l 369 0 l 332 -114 b 243 -212 307 -190 285 -212 b 175 -106 206 -212 167 -181 l 56 -96 b 232 -283 43 -199 97 -283 b 415 -114 322 -283 371 -254 l 626 535 b 721 592 643 583 678 592 z "},"ỳ":{"ha":729,"x_min":0,"x_max":0,"o":"m 476 700 l 483 714 b 321 922 393 776 354 844 l 246 833 b 476 700 300 772 375 719 z m 721 628 l 432 628 l 432 592 b 543 535 529 592 560 583 l 397 88 l 222 628 l 18 628 l 18 592 b 113 535 61 592 96 583 l 286 0 l 369 0 l 332 -114 b 243 -212 307 -190 285 -212 b 175 -106 206 -212 167 -181 l 56 -96 b 232 -283 43 -199 97 -283 b 415 -114 322 -283 371 -254 l 626 535 b 721 592 643 583 678 592 z "},"z":{"ha":700,"x_min":0,"x_max":0,"o":"m 325 163 l 640 607 l 640 628 l 171 628 b 88 643 144 628 108 632 l 75 568 l 51 422 l 88 417 b 169 554 101 503 119 551 l 481 571 b 411 490 458 551 435 522 l 125 86 b 44 0 103 56 72 21 l 504 0 b 594 -15 546 0 572 -6 l 608 61 l 640 238 l 604 244 b 515 81 586 140 565 82 l 242 68 b 325 163 274 93 300 128 z "},"ź":{"ha":700,"x_min":0,"x_max":0,"o":"m 453 833 l 378 922 b 215 714 344 844 306 776 l 222 700 b 453 833 324 719 399 772 z m 325 163 l 640 607 l 640 628 l 171 628 b 88 643 144 628 108 632 l 75 568 l 51 422 l 88 417 b 169 554 101 503 119 551 l 481 571 b 411 490 458 551 435 522 l 125 86 b 44 0 103 56 72 21 l 504 0 b 594 -15 546 0 572 -6 l 608 61 l 640 238 l 604 244 b 515 81 586 140 565 82 l 242 68 b 325 163 274 93 300 128 z "},"ž":{"ha":700,"x_min":0,"x_max":0,"o":"m 374 721 l 511 871 l 394 871 l 343 792 l 292 871 l 175 871 l 313 721 z m 325 163 l 640 607 l 640 628 l 171 628 b 88 643 144 628 108 632 l 75 568 l 51 422 l 88 417 b 169 554 101 503 119 551 l 481 571 b 411 490 458 551 435 522 l 125 86 b 44 0 103 56 72 21 l 504 0 b 594 -15 546 0 572 -6 l 608 61 l 640 238 l 604 244 b 515 81 586 140 565 82 l 242 68 b 325 163 274 93 300 128 z "},"ż":{"ha":700,"x_min":0,"x_max":0,"o":"m 442 828 l 342 926 l 243 828 l 342 728 z m 325 163 l 640 607 l 640 628 l 171 628 b 88 643 144 628 108 632 l 75 568 l 51 422 l 88 417 b 169 554 101 503 119 551 l 481 571 b 411 490 458 551 435 522 l 125 86 b 44 0 103 56 72 21 l 504 0 b 594 -15 546 0 572 -6 l 608 61 l 640 238 l 604 244 b 515 81 586 140 565 82 l 242 68 b 325 163 274 93 300 128 z "},"⁄":{"ha":424,"x_min":0,"x_max":0,"o":"m -62 47 l 25 29 l 524 828 l 435 847 z "},".":{"ha":256,"x_min":0,"x_max":0,"o":"m 29 78 l 128 -22 l 228 78 l 128 176 z "},",":{"ha":256,"x_min":0,"x_max":0,"o":"m 29 78 l 128 -22 l 128 -182 l 138 -182 l 228 78 l 128 176 z "},":":{"ha":256,"x_min":0,"x_max":0,"o":"m 29 442 l 128 342 l 228 442 l 128 540 z m 29 78 l 128 -22 l 228 78 l 128 176 z "},";":{"ha":256,"x_min":0,"x_max":0,"o":"m 29 442 l 128 342 l 228 442 l 128 540 z m 29 78 l 128 -22 l 128 -182 l 138 -182 l 228 78 l 128 176 z "},"…":{"ha":817,"x_min":0,"x_max":0,"o":"m 128 -31 l 228 69 l 128 168 l 29 69 z m 414 -31 l 513 69 l 414 168 l 314 69 z m 690 -31 l 789 69 l 690 168 l 590 69 z "},"!":{"ha":342,"x_min":0,"x_max":0,"o":"m 175 218 l 246 819 l 169 897 l 92 819 l 164 218 z m 71 78 l 171 -22 l 269 78 l 171 176 z "},"¡":{"ha":342,"x_min":0,"x_max":0,"o":"m 71 550 l 171 451 l 269 550 l 171 650 z m 175 410 l 164 410 l 92 -192 l 169 -269 l 246 -192 z "},"?":{"ha":726,"x_min":0,"x_max":0,"o":"m 367 899 b 71 665 188 899 71 782 b 94 553 71 629 79 585 l 256 567 b 222 675 238 593 222 633 b 369 818 222 774 289 818 b 511 667 463 818 511 757 b 324 451 511 517 413 461 l 290 449 l 338 222 l 342 222 l 426 390 l 361 418 b 656 669 513 425 656 522 b 367 899 656 783 564 899 z m 240 78 l 340 -22 l 439 78 l 340 176 z "},"¿":{"ha":726,"x_min":0,"x_max":0,"o":"m 486 550 l 386 650 l 288 550 l 386 451 z m 632 75 l 471 61 b 504 -47 489 35 504 -6 b 357 -190 504 -146 438 -190 b 215 -39 264 -190 215 -129 b 403 176 215 111 314 167 l 436 179 l 389 406 l 385 406 l 300 238 l 365 210 b 71 -42 214 203 71 106 b 360 -271 71 -156 163 -271 b 656 -37 539 -271 656 -154 b 632 75 656 -1 647 43 z "},"·":{"ha":342,"x_min":0,"x_max":0,"o":"m 46 325 l 144 225 l 244 325 l 144 424 z "},"•":{"ha":342,"x_min":0,"x_max":0,"o":"m 171 218 b 269 318 226 218 269 263 b 171 417 269 374 226 417 b 71 318 115 417 71 374 b 171 218 71 263 115 218 z "},"*":{"ha":386,"x_min":0,"x_max":0,"o":"m 42 668 l 68 622 l 174 693 l 167 565 l 219 565 l 213 693 l 318 622 l 344 668 l 231 726 l 344 782 l 318 828 l 213 760 l 219 885 l 167 885 l 174 760 l 68 828 l 42 782 l 156 726 z "},"‽":{"ha":1032,"x_min":0,"x_max":0,"o":"m 732 879 b 374 761 563 940 414 871 b 357 647 361 728 354 683 l 514 606 b 519 719 506 636 506 679 b 707 803 553 811 631 831 b 788 613 794 771 818 697 b 538 474 736 471 625 453 l 506 483 l 472 254 l 476 253 l 614 382 l 563 431 b 925 565 707 385 875 428 b 732 879 964 672 917 813 z m 392 251 l 253 840 l 154 888 l 107 788 l 381 247 z m 332 78 l 432 -22 l 531 78 l 432 176 z "},"#":{"ha":896,"x_min":0,"x_max":0,"o":"m 871 550 l 871 628 l 664 628 l 725 885 l 635 885 l 574 628 l 315 628 l 376 885 l 286 885 l 225 628 l 21 628 l 21 550 l 206 550 l 151 322 l -37 322 l -37 244 l 133 244 l 75 0 l 165 0 l 224 244 l 482 244 l 424 0 l 514 0 l 572 244 l 813 244 l 813 322 l 590 322 l 644 550 z m 500 322 l 242 322 l 296 550 l 554 550 z "},"/":{"ha":429,"x_min":0,"x_max":0,"o":"m 24 0 l 114 0 l 435 885 l 344 885 z "},"\\":{"ha":429,"x_min":0,"x_max":0,"o":"m 406 0 l 85 885 l -6 885 l 315 0 z "},"(":{"ha":411,"x_min":0,"x_max":0,"o":"m 28 424 b 374 -137 28 151 157 -40 l 383 -121 b 143 424 264 -49 143 89 b 383 956 143 758 247 876 l 374 971 b 28 424 143 869 28 696 z "},")":{"ha":411,"x_min":0,"x_max":0,"o":"m 383 424 b 38 971 383 696 268 869 l 28 956 b 268 424 164 876 268 758 b 28 -121 268 89 147 -49 l 38 -137 b 383 424 254 -40 383 151 z "},"{":{"ha":408,"x_min":0,"x_max":0,"o":"m 28 403 b 136 294 69 401 136 367 l 136 243 b 374 -137 136 60 197 -65 l 381 -121 b 238 296 253 -50 238 50 b 136 414 238 382 197 404 l 136 431 b 238 550 196 443 238 464 b 381 956 238 768 236 878 l 374 971 b 136 603 194 900 136 760 l 136 553 b 28 444 136 475 69 447 z "},"}":{"ha":408,"x_min":0,"x_max":0,"o":"m 381 403 l 381 444 b 272 553 339 447 272 475 l 272 603 b 35 971 272 760 214 900 l 28 956 b 171 550 172 878 171 768 b 272 431 171 464 213 443 l 272 414 b 171 296 211 404 171 382 b 28 -121 171 50 156 -50 l 35 -137 b 272 243 211 -65 272 60 l 272 294 b 381 403 272 367 339 401 z "},"[":{"ha":356,"x_min":0,"x_max":0,"o":"m 328 914 l 328 956 l 28 956 l 28 -121 l 328 -121 l 328 -81 l 113 -68 l 113 901 z "},"]":{"ha":356,"x_min":0,"x_max":0,"o":"m 328 956 l 28 956 l 28 914 l 243 901 l 243 -68 l 28 -81 l 28 -121 l 328 -121 z "},"-":{"ha":444,"x_min":0,"x_max":0,"o":"m 42 382 l 42 304 l 403 304 l 403 382 z "},"–":{"ha":543,"x_min":0,"x_max":0,"o":"m 42 382 l 42 304 l 501 304 l 501 382 z "},"—":{"ha":708,"x_min":0,"x_max":0,"o":"m 42 382 l 42 304 l 667 304 l 667 382 z "},"_":{"ha":444,"x_min":0,"x_max":0,"o":"m 42 0 l 42 -78 l 403 -78 l 403 0 z "},"‚":{"ha":256,"x_min":0,"x_max":0,"o":"m 29 78 l 128 -22 l 128 -182 l 138 -182 l 228 78 l 128 176 z "},"„":{"ha":256,"x_min":0,"x_max":0,"o":"m 128 176 l 29 78 l 128 -22 l 128 -182 l 138 -182 l 228 78 z "},"“":{"ha":471,"x_min":0,"x_max":0,"o":"m 228 689 l 129 789 l 129 949 l 119 949 l 29 689 l 129 590 z m 443 689 l 344 789 l 344 949 l 335 949 l 244 689 l 344 590 z "},"”":{"ha":471,"x_min":0,"x_max":0,"o":"m 29 850 l 128 750 l 128 590 l 138 590 l 228 850 l 128 949 z m 244 850 l 343 750 l 343 590 l 353 590 l 443 850 l 343 949 z "},"‘":{"ha":256,"x_min":0,"x_max":0,"o":"m 228 647 l 129 747 l 129 907 l 119 907 l 29 647 l 129 549 z "},"’":{"ha":256,"x_min":0,"x_max":0,"o":"m 29 850 l 128 750 l 128 590 l 138 590 l 228 850 l 128 949 z "},"«":{"ha":710,"x_min":0,"x_max":0,"o":"m 42 339 l 411 53 l 411 157 l 149 339 l 411 522 l 411 626 z m 299 339 l 668 53 l 668 157 l 406 339 l 668 522 l 668 626 z "},"»":{"ha":710,"x_min":0,"x_max":0,"o":"m 411 339 l 42 626 l 42 522 l 304 339 l 42 157 l 42 53 z m 668 339 l 299 626 l 299 522 l 561 339 l 299 157 l 299 53 z "},"‹":{"ha":453,"x_min":0,"x_max":0,"o":"m 42 339 l 411 53 l 411 157 l 149 339 l 411 522 l 411 626 z "},"›":{"ha":453,"x_min":0,"x_max":0,"o":"m 411 339 l 42 626 l 42 522 l 304 339 l 42 157 l 42 53 z "},"\"":{"ha":292,"x_min":0,"x_max":0,"o":"m 128 897 l 29 897 l 29 638 l 51 638 z m 264 897 l 165 897 l 165 638 l 188 638 z "},"'":{"ha":156,"x_min":0,"x_max":0,"o":"m 128 897 l 29 897 l 29 638 l 51 638 z "}," ":{"ha":308,"x_min":0,"x_max":0,"o":""},"¢":{"ha":453,"x_min":0,"x_max":0,"o":"m 392 336 b 267 263 378 304 342 263 b 211 272 246 263 228 265 l 275 590 b 318 510 303 578 318 549 b 313 457 318 494 317 476 l 403 449 b 406 489 404 464 406 476 b 283 638 406 569 365 625 l 300 718 l 269 721 l 254 640 l 244 640 b 42 421 126 640 42 571 b 169 215 42 308 90 240 l 154 138 l 183 135 l 199 208 b 244 204 213 206 228 204 b 411 329 353 204 396 285 z m 128 431 b 240 596 128 540 171 596 l 244 596 l 183 288 b 128 431 147 314 128 361 z "},"$":{"ha":733,"x_min":0,"x_max":0,"o":"m 486 486 l 407 514 l 458 804 b 610 567 533 772 592 697 l 639 567 l 625 806 b 472 883 585 842 532 868 l 494 1013 l 438 1024 l 415 894 b 347 899 393 897 369 899 b 36 656 136 899 36 783 b 226 425 36 544 86 475 l 326 390 l 272 76 b 43 413 144 114 50 235 l 14 413 l 14 132 b 258 -3 60 71 142 15 l 240 -107 l 297 -119 l 317 -10 l 343 -10 b 664 246 551 -10 664 90 b 486 486 664 353 628 436 z m 272 563 b 161 688 192 592 161 629 b 356 825 161 756 211 825 b 403 821 371 825 388 824 l 353 533 z m 358 64 b 329 65 349 64 339 64 l 382 371 l 417 358 b 536 211 508 326 536 278 b 358 64 536 122 476 64 z "},"€":{"ha":924,"x_min":0,"x_max":0,"o":"m 585 67 b 303 358 426 67 326 172 l 710 358 l 710 413 l 299 413 l 299 442 b 300 485 299 457 299 471 l 751 485 l 751 539 l 306 539 b 585 822 331 718 431 822 b 861 622 743 822 828 717 l 882 625 b 550 899 864 738 804 899 b 165 539 328 899 194 768 l 83 539 l 83 485 l 161 485 b 160 442 160 471 160 457 l 160 413 l 42 413 l 42 358 l 164 358 b 550 -10 189 122 324 -10 b 882 264 804 -10 864 151 l 861 267 b 585 67 828 172 743 67 z "},"£":{"ha":807,"x_min":0,"x_max":0,"o":"m 731 211 b 638 78 710 126 688 78 l 188 78 b 313 350 269 151 313 238 b 308 415 313 371 311 392 l 590 415 l 590 469 l 300 469 b 281 660 292 531 281 597 b 446 821 281 758 340 821 b 624 636 547 821 614 764 l 746 721 b 439 899 671 846 575 899 b 142 640 219 899 142 772 b 160 469 142 583 151 526 l 42 469 l 42 415 l 168 415 b 174 333 171 388 174 360 b 42 74 174 219 143 133 l 42 0 l 715 0 l 731 58 l 765 203 z "},"¥":{"ha":921,"x_min":0,"x_max":0,"o":"m 851 885 l 543 885 l 543 849 b 625 799 631 849 649 843 l 443 457 l 235 885 l 14 885 l 14 849 b 133 797 65 849 111 843 l 333 397 l 182 397 l 182 343 l 351 343 l 351 285 l 182 285 l 182 231 l 351 231 l 351 97 b 256 36 351 47 321 36 l 256 0 l 588 0 l 588 36 b 492 97 522 36 492 47 l 492 231 l 685 231 l 685 285 l 492 285 l 492 343 l 685 343 l 685 397 l 507 397 l 728 800 b 851 849 753 844 800 849 z "},"+":{"ha":535,"x_min":0,"x_max":0,"o":"m 493 382 l 308 382 l 308 571 l 226 571 l 226 382 l 42 382 l 42 304 l 226 304 l 226 111 l 308 111 l 308 304 l 493 304 z "},"−":{"ha":543,"x_min":0,"x_max":0,"o":"m 42 382 l 42 304 l 501 304 l 501 382 z "},"×":{"ha":465,"x_min":0,"x_max":0,"o":"m 364 529 b 233 386 321 486 276 442 b 99 532 189 443 143 488 l 42 475 b 189 342 86 431 132 386 b 44 210 132 297 89 254 l 101 153 b 233 297 146 197 189 240 b 367 150 278 240 322 194 l 424 207 b 278 342 379 251 335 297 b 421 472 333 385 378 429 z "},"÷":{"ha":543,"x_min":0,"x_max":0,"o":"m 269 453 b 326 508 301 453 326 478 b 269 564 326 539 301 564 b 214 508 238 564 214 539 b 269 453 214 478 238 453 z m 42 382 l 42 304 l 501 304 l 501 382 z m 269 122 b 326 178 301 122 326 147 b 269 233 326 208 301 233 b 214 178 238 233 214 208 b 269 122 214 147 238 122 z "},"=":{"ha":444,"x_min":0,"x_max":0,"o":"m 42 389 l 403 389 l 403 467 l 42 467 z m 42 218 l 403 218 l 403 296 l 42 296 z "},"≠":{"ha":444,"x_min":0,"x_max":0,"o":"m 403 389 l 403 467 l 299 467 l 338 574 l 278 574 l 239 467 l 42 467 l 42 389 l 210 389 l 176 296 l 42 296 l 42 218 l 147 218 l 108 110 l 167 110 l 207 218 l 403 218 l 403 296 l 235 296 l 269 389 z "},">":{"ha":531,"x_min":0,"x_max":0,"o":"m 489 339 l 42 590 l 42 501 l 394 339 l 42 178 l 42 88 z "},"<":{"ha":531,"x_min":0,"x_max":0,"o":"m 42 339 l 489 88 l 489 178 l 136 339 l 489 501 l 489 590 z "},"≥":{"ha":531,"x_min":0,"x_max":0,"o":"m 489 339 l 42 590 l 42 501 l 394 339 l 42 178 l 42 88 l 476 88 l 476 138 l 131 138 z "},"≤":{"ha":531,"x_min":0,"x_max":0,"o":"m 489 590 l 42 339 l 400 138 l 54 138 l 54 88 l 489 88 l 489 178 l 136 339 l 489 501 z "},"±":{"ha":535,"x_min":0,"x_max":0,"o":"m 493 311 l 493 389 l 308 389 l 308 571 l 226 571 l 226 389 l 42 389 l 42 311 l 226 311 l 226 138 l 42 138 l 42 88 l 493 88 l 493 138 l 308 138 l 308 311 z "},"≈":{"ha":404,"x_min":0,"x_max":0,"o":"m 42 368 l 53 357 b 125 393 72 376 93 393 b 254 365 172 393 200 365 b 363 436 290 365 326 393 l 350 453 b 279 426 332 443 311 426 b 149 454 232 426 203 454 b 42 368 113 454 78 425 z m 42 239 l 53 228 b 125 264 72 247 93 264 b 254 236 172 264 200 236 b 363 307 290 236 326 264 l 350 324 b 279 297 332 314 311 297 b 149 325 232 297 203 325 b 42 239 113 325 78 296 z "},"~":{"ha":404,"x_min":0,"x_max":0,"o":"m 42 299 l 53 288 b 125 324 72 307 93 324 b 254 296 172 324 200 296 b 363 367 290 296 326 324 l 350 383 b 279 357 332 374 311 357 b 149 385 232 357 203 385 b 42 299 113 385 78 356 z "},"¬":{"ha":514,"x_min":0,"x_max":0,"o":"m 390 206 l 472 206 l 472 383 l 42 383 l 42 304 l 390 304 z "},"^":{"ha":501,"x_min":0,"x_max":0,"o":"m 42 583 l 119 583 l 257 885 l 381 583 l 460 583 l 272 969 l 242 969 z "},"∅":{"ha":453,"x_min":0,"x_max":0,"o":"m 346 460 l 411 544 l 386 565 l 319 479 b 226 507 293 497 261 507 b 51 333 129 507 51 429 b 107 206 51 282 72 238 l 42 121 l 65 101 l 132 186 b 226 158 158 168 192 158 b 400 333 322 158 400 236 b 346 460 400 383 379 428 z m 104 333 b 226 458 104 403 160 458 b 289 440 249 458 271 451 l 139 246 b 104 333 117 268 104 299 z m 226 207 b 163 225 203 207 181 214 l 314 419 b 347 333 335 397 347 367 b 226 207 347 263 292 207 z "},"∞":{"ha":729,"x_min":0,"x_max":0,"o":"m 42 325 b 211 151 42 215 114 151 b 388 294 319 151 376 229 b 528 151 397 203 446 151 b 688 325 624 151 688 215 b 519 500 688 436 615 500 b 343 357 410 500 354 422 b 203 500 333 449 283 500 b 42 325 106 500 42 436 z m 96 324 b 210 471 96 415 136 471 b 331 332 282 471 331 424 b 204 194 331 256 290 194 b 96 324 144 194 96 233 z m 399 318 b 513 457 399 410 439 457 b 633 326 585 457 633 418 b 521 181 633 236 593 181 b 399 318 447 181 399 228 z "},"∫":{"ha":560,"x_min":0,"x_max":0,"o":"m 226 67 l 394 761 b 468 844 406 807 417 844 b 510 836 478 844 496 842 l 518 846 l 421 969 b 333 772 369 935 356 865 l 165 78 b 100 -6 154 32 143 -6 b 50 3 82 -6 65 -3 l 42 -7 l 139 -131 b 226 67 190 -96 204 -26 z "},"∏":{"ha":675,"x_min":0,"x_max":0,"o":"m 633 890 l 633 968 l 14 968 l 14 890 l 111 890 l 111 -42 b 47 -103 111 -92 90 -103 l 47 -139 l 247 -139 l 247 -103 b 183 -42 204 -103 183 -92 l 183 890 l 464 890 l 464 -42 b 400 -103 464 -92 443 -103 l 400 -139 l 600 -139 l 600 -103 b 536 -42 557 -103 536 -92 l 536 890 z "},"∑":{"ha":722,"x_min":0,"x_max":0,"o":"m 42 -139 l 650 -139 l 661 -75 l 681 29 l 629 38 b 525 -61 618 -24 597 -61 l 142 -61 l 486 418 l 161 890 l 497 890 b 593 794 569 890 588 857 l 644 799 l 635 904 l 629 968 l 42 968 l 42 890 l 375 403 l 42 -61 z "},"√":{"ha":869,"x_min":0,"x_max":0,"o":"m 863 968 l 667 968 l 304 -94 l 135 385 l 42 385 l 228 -139 l 364 -139 l 717 890 l 863 890 z "},"∂":{"ha":694,"x_min":0,"x_max":0,"o":"m 217 890 l 214 876 b 519 439 392 846 504 699 b 310 640 485 585 410 640 b 42 319 156 640 42 517 b 361 -7 42 106 201 -7 b 653 400 522 -7 653 107 b 217 890 653 726 407 872 z m 347 60 b 183 318 242 60 183 131 b 328 574 183 469 229 574 b 514 276 443 574 514 432 b 347 60 514 157 467 60 z "},"%":{"ha":949,"x_min":0,"x_max":0,"o":"m 225 499 b 410 701 343 499 410 589 b 225 899 410 814 343 899 b 42 701 108 899 42 814 b 225 499 42 589 108 499 z m 132 0 l 219 0 l 815 885 l 728 885 z m 225 542 b 126 701 160 542 126 603 b 225 856 126 796 160 856 b 325 701 292 856 325 796 b 225 542 325 603 292 542 z m 722 -10 b 907 193 840 -10 907 81 b 722 390 907 306 840 390 b 539 193 606 390 539 306 b 722 -10 539 81 606 -10 z m 722 33 b 624 193 657 33 624 94 b 722 347 624 288 657 347 b 822 193 789 347 822 288 b 722 33 822 94 789 33 z "},"‰":{"ha":1383,"x_min":0,"x_max":0,"o":"m 225 499 b 410 701 343 499 410 589 b 225 899 410 814 343 899 b 42 701 108 899 42 814 b 225 499 42 589 108 499 z m 132 0 l 219 0 l 815 885 l 728 885 z m 225 542 b 126 701 160 542 126 603 b 225 856 126 796 160 856 b 325 701 292 856 325 796 b 225 542 325 603 292 542 z m 722 -10 b 907 193 840 -10 907 81 b 722 390 907 306 840 390 b 539 193 606 390 539 306 b 722 -10 539 81 606 -10 z m 1157 -10 b 1342 193 1275 -10 1342 81 b 1157 390 1342 306 1275 390 b 974 193 1040 390 974 306 b 1157 -10 974 81 1040 -10 z m 722 33 b 624 193 657 33 624 94 b 722 347 624 288 657 347 b 822 193 789 347 822 288 b 722 33 822 94 789 33 z m 1157 33 b 1058 193 1092 33 1058 94 b 1157 347 1058 288 1092 347 b 1257 193 1224 347 1257 288 b 1157 33 1257 94 1224 33 z "},"↑":{"ha":597,"x_min":0,"x_max":0,"o":"m 556 292 b 324 600 435 379 367 467 l 274 600 b 42 292 231 467 163 379 l 110 236 b 285 546 183 317 251 422 l 260 228 l 260 25 l 338 25 l 338 228 l 313 546 b 488 236 346 422 414 317 z "},"↗":{"ha":535,"x_min":0,"x_max":0,"o":"m 493 549 l 458 583 b 76 529 333 519 224 506 l 85 442 b 425 536 193 447 314 472 l 185 331 l 42 186 l 97 132 l 240 275 l 446 515 b 351 175 382 404 357 283 l 439 167 b 493 549 415 314 429 424 z "},"→":{"ha":658,"x_min":0,"x_max":0,"o":"m 308 600 l 253 532 b 563 357 333 458 439 390 l 244 382 l 42 382 l 42 304 l 244 304 l 563 329 b 253 154 439 296 333 228 l 308 86 b 617 318 396 207 483 275 l 617 368 b 308 600 483 411 396 479 z "},"↘":{"ha":535,"x_min":0,"x_max":0,"o":"m 439 549 l 351 540 b 446 200 357 432 382 311 l 240 440 l 97 583 l 42 529 l 185 385 l 425 179 b 85 274 314 243 193 268 l 76 186 b 458 132 224 210 333 196 l 493 167 b 439 549 429 292 415 401 z "},"↓":{"ha":597,"x_min":0,"x_max":0,"o":"m 488 458 b 313 149 414 378 346 272 l 338 467 l 338 669 l 260 669 l 260 467 l 285 149 b 110 458 251 272 183 378 l 42 403 b 274 94 163 315 231 228 l 324 94 b 556 403 367 228 435 315 z "},"↙":{"ha":535,"x_min":0,"x_max":0,"o":"m 110 179 l 350 385 l 493 529 l 438 583 l 294 440 l 89 200 b 183 540 153 311 178 432 l 96 549 b 42 167 119 401 106 292 l 76 132 b 458 186 201 196 311 210 l 450 274 b 110 179 342 268 221 243 z "},"←":{"ha":658,"x_min":0,"x_max":0,"o":"m 414 382 l 96 357 b 406 532 219 390 325 458 l 350 600 b 42 368 263 479 175 411 l 42 318 b 350 86 175 275 263 207 l 406 154 b 96 329 325 228 219 296 l 414 304 l 617 304 l 617 382 z "},"↖":{"ha":535,"x_min":0,"x_max":0,"o":"m 350 328 l 110 533 b 450 439 221 469 342 444 l 458 526 b 76 581 311 503 201 517 l 42 546 b 96 164 106 421 119 311 l 183 172 b 89 513 178 281 153 401 l 294 272 l 438 129 l 493 183 z "},"↔":{"ha":921,"x_min":0,"x_max":0,"o":"m 571 600 l 515 532 b 825 357 596 458 701 390 l 507 382 l 414 382 l 96 357 b 406 532 219 390 325 458 l 350 600 b 42 368 263 479 175 411 l 42 318 b 350 86 175 275 263 207 l 406 154 b 96 329 325 228 219 296 l 414 304 l 507 304 l 825 329 b 515 154 701 296 596 228 l 571 86 b 879 318 658 207 746 275 l 879 368 b 571 600 746 411 658 479 z "},"↕":{"ha":597,"x_min":0,"x_max":0,"o":"m 313 21 l 338 339 l 338 349 l 313 667 b 488 385 346 543 414 451 l 556 440 b 324 721 435 514 367 588 l 274 721 b 42 440 231 588 163 514 l 110 385 b 285 667 183 451 251 543 l 260 349 l 260 339 l 285 21 b 110 303 251 144 183 236 l 42 247 b 274 -33 163 174 231 100 l 324 -33 b 556 247 367 100 435 174 l 488 303 b 313 21 414 236 346 144 z "},"◊":{"ha":569,"x_min":0,"x_max":0,"o":"m 342 885 l 228 885 l 42 444 l 228 0 l 342 0 l 528 444 z m 285 46 l 117 444 l 285 839 l 453 444 z "},"@":{"ha":1213,"x_min":0,"x_max":0,"o":"m 667 -229 l 1165 76 l 1151 101 l 653 -164 b 154 336 269 -111 154 89 b 607 836 154 615 306 836 b 1061 357 908 836 1061 681 b 1057 264 1061 328 1060 310 l 835 147 l 835 367 b 613 638 835 483 826 638 b 394 478 479 638 394 568 b 404 429 394 457 401 436 l 514 439 l 514 443 b 507 483 510 457 507 469 b 606 578 507 538 539 578 b 719 403 683 578 719 514 l 719 383 l 397 347 b 378 243 383 314 378 272 b 546 49 378 110 439 49 b 724 217 661 49 706 136 l 725 217 l 725 22 l 1168 283 b 1171 340 1169 297 1171 315 b 607 901 1171 682 942 901 b 42 322 271 901 42 663 b 667 -229 42 50 183 -186 z m 575 118 b 493 229 519 118 493 163 b 506 303 493 256 497 283 l 718 346 b 575 118 706 189 643 118 z "},"&":{"ha":881,"x_min":0,"x_max":0,"o":"m 42 317 b 422 -10 42 132 186 -10 b 672 60 518 -10 604 15 l 729 -25 l 744 -17 l 696 76 b 839 383 785 146 839 251 b 803 550 839 465 824 513 l 636 508 b 694 318 668 463 694 411 b 653 161 694 251 681 200 l 331 779 l 647 779 b 688 658 697 779 703 744 l 722 653 l 747 799 l 763 885 l 128 885 l 394 482 l 393 481 b 242 540 374 506 335 540 b 42 317 139 540 42 465 z m 186 300 b 328 469 186 393 246 469 b 465 372 371 469 414 450 l 625 131 b 422 71 579 90 511 71 b 186 300 282 71 186 172 z "},"¶":{"ha":619,"x_min":0,"x_max":0,"o":"m 83 719 b 311 494 83 578 185 501 l 311 -139 l 383 -139 l 383 942 l 311 942 b 83 719 185 942 83 858 z m 464 942 l 464 -139 l 536 -139 l 536 942 z "},"§":{"ha":590,"x_min":0,"x_max":0,"o":"m 296 -149 b 544 40 411 -149 544 -121 b 411 232 544 122 506 192 b 549 388 500 242 549 290 b 386 590 549 489 489 553 l 246 640 b 160 738 183 663 160 693 b 310 843 160 789 210 843 b 506 643 406 843 488 786 l 529 643 l 518 828 b 304 900 467 874 386 900 b 64 713 140 900 64 811 b 186 543 64 633 96 579 l 238 522 b 60 365 104 510 60 440 b 206 186 60 279 97 224 l 343 139 b 446 19 415 114 446 81 b 292 -92 446 -46 396 -92 b 65 178 163 -92 68 11 l 42 178 l 42 -40 b 296 -149 79 -96 161 -149 z m 339 258 l 242 293 b 156 390 179 315 156 346 b 306 501 156 469 213 501 l 347 486 b 450 367 421 460 450 428 b 339 258 450 311 414 269 z "},"©":{"ha":1186,"x_min":0,"x_max":0,"o":"m 586 -217 b 1144 343 886 -217 1144 21 b 586 901 1144 665 886 901 b 42 343 286 901 42 665 b 586 -217 42 21 286 -217 z m 586 -151 b 154 343 329 -151 154 18 b 586 836 154 668 329 836 b 1032 343 843 836 1032 668 b 586 -151 1032 18 843 -151 z m 693 394 l 813 385 b 817 438 815 403 817 421 b 601 633 817 561 746 633 b 332 342 443 633 332 540 b 603 51 332 147 439 51 b 824 218 747 51 804 158 l 799 228 b 631 129 779 185 731 129 b 446 354 515 129 446 204 b 596 574 446 500 503 574 b 701 465 665 574 701 535 b 693 394 701 444 699 421 z "},"®":{"ha":608,"x_min":0,"x_max":0,"o":"m 301 901 b 31 636 156 901 31 792 b 301 369 31 479 156 369 b 578 636 446 369 578 479 b 301 901 578 792 446 901 z m 301 404 b 88 636 172 404 88 500 b 301 867 88 771 172 867 b 521 636 433 867 521 771 b 301 404 521 500 433 404 z m 304 649 l 304 651 b 331 647 313 649 319 647 b 406 711 367 647 406 667 b 324 776 406 751 375 776 l 203 776 l 203 765 b 226 746 219 765 226 761 l 226 533 b 203 514 226 517 219 514 l 203 503 l 293 503 l 293 514 b 269 533 278 514 269 517 l 269 660 l 371 526 b 349 514 381 514 376 514 l 349 503 l 436 503 l 436 511 l 363 600 b 304 649 347 617 324 638 z m 269 710 l 269 753 l 314 753 b 361 707 349 753 361 735 b 318 665 361 683 347 665 b 269 710 294 665 269 682 z "},"°":{"ha":396,"x_min":0,"x_max":0,"o":"m 199 586 b 354 743 285 586 354 656 b 199 899 354 829 285 899 b 42 743 111 899 42 829 b 199 586 42 656 111 586 z m 199 657 b 115 743 150 657 115 690 b 199 828 115 794 150 828 b 281 743 246 828 281 794 b 199 657 281 690 246 657 z "},"|":{"ha":138,"x_min":0,"x_max":0,"o":"m 96 968 l 42 968 l 42 -139 l 96 -139 z "},"¦":{"ha":138,"x_min":0,"x_max":0,"o":"m 42 579 l 96 579 l 96 968 l 42 968 z m 42 -139 l 96 -139 l 96 251 l 42 251 z "},"†":{"ha":451,"x_min":0,"x_max":0,"o":"m 410 781 l 253 781 l 253 968 l 199 968 l 199 781 l 42 781 l 42 731 l 199 731 l 199 232 l 253 232 l 253 731 l 410 731 z "},"‡":{"ha":451,"x_min":0,"x_max":0,"o":"m 410 728 l 410 778 l 253 778 l 253 968 l 199 968 l 199 778 l 42 778 l 42 728 l 199 728 l 199 469 l 42 469 l 42 419 l 199 419 l 199 229 l 253 229 l 253 419 l 410 419 l 410 469 l 253 469 l 253 728 z "},"̈":{"ha":0,"x_min":0,"x_max":0,"o":"m -358 726 l -260 828 l -358 926 l -458 828 z m -126 726 l -28 828 l -126 926 l -226 828 z "},"̇":{"ha":0,"x_min":0,"x_max":0,"o":"m -226 828 l -128 728 l -28 828 l -128 926 z "},"̀":{"ha":0,"x_min":0,"x_max":0,"o":"m -251 833 b -21 700 -197 772 -122 719 l -14 714 b -176 922 -104 776 -143 844 z "},"́":{"ha":0,"x_min":0,"x_max":0,"o":"m -4 833 l -79 922 b -242 714 -112 844 -151 776 l -235 700 b -4 833 -133 719 -58 772 z "},"̋":{"ha":0,"x_min":0,"x_max":0,"o":"m -175 897 l -275 897 l -275 711 l -251 711 z m -39 897 l -137 897 l -137 711 l -115 711 z "},"̂":{"ha":0,"x_min":0,"x_max":0,"o":"m -360 749 l -243 749 l -192 828 l -140 749 l -24 749 l -161 899 l -222 899 z "},"̌":{"ha":0,"x_min":0,"x_max":0,"o":"m -317 871 l -179 721 l -118 721 l 19 871 l -97 871 l -149 792 l -200 871 z "},"̆":{"ha":0,"x_min":0,"x_max":0,"o":"m -307 885 b -169 735 -311 785 -244 735 b -33 885 -96 735 -29 775 l -140 885 b -169 772 -118 811 -129 772 b -200 885 -212 772 -222 811 z "},"̊":{"ha":0,"x_min":0,"x_max":0,"o":"m -104 739 b -24 819 -60 739 -24 775 b -104 899 -24 864 -60 899 b -185 819 -149 899 -185 864 b -104 739 -185 775 -149 739 z m -104 793 b -129 819 -118 793 -129 806 b -104 843 -129 833 -118 843 b -79 819 -90 843 -79 833 b -104 793 -79 806 -90 793 z "},"̃":{"ha":0,"x_min":0,"x_max":0,"o":"m -344 746 l -333 735 b -261 771 -314 754 -293 771 b -132 743 -214 771 -186 743 b -24 814 -96 743 -60 771 l -36 831 b -107 804 -54 821 -75 804 b -237 832 -154 804 -183 832 b -344 746 -274 832 -308 803 z "},"̄":{"ha":0,"x_min":0,"x_max":0,"o":"m -401 792 l -401 738 l 11 738 l 11 792 z "},"̒":{"ha":0,"x_min":0,"x_max":0,"o":"m -28 1010 l -126 1110 l -126 1269 l -136 1269 l -226 1010 l -126 911 z "},"̦":{"ha":0,"x_min":0,"x_max":0,"o":"m -226 -125 l -128 -225 l -128 -385 l -118 -385 l -28 -125 l -128 -26 z "},"̧":{"ha":0,"x_min":0,"x_max":0,"o":"m -97 -74 b -129 -78 -110 -74 -121 -75 l -53 11 l -149 11 l -201 -107 b -154 -103 -186 -104 -169 -103 b -76 -175 -104 -103 -76 -129 b -124 -226 -76 -194 -86 -226 b -164 -192 -146 -226 -164 -212 b -153 -153 -164 -178 -160 -165 l -226 -140 b -235 -187 -233 -157 -235 -174 b -125 -278 -235 -236 -193 -278 b -7 -165 -53 -278 -7 -235 b -97 -74 -7 -100 -53 -74 z "},"̨":{"ha":0,"x_min":0,"x_max":0,"o":"m -31 -239 l -71 -149 b -142 -179 -93 -168 -112 -179 b -194 -126 -179 -179 -194 -156 b -81 13 -194 -76 -140 -29 l -124 21 b -271 -156 -201 -18 -271 -82 b -133 -268 -271 -224 -210 -268 b -31 -239 -94 -268 -62 -257 z "},"̵":{"ha":0,"x_min":0,"x_max":0,"o":"m -440 792 l -440 738 l -28 738 l -28 792 z "},"´":{"ha":285,"x_min":0,"x_max":0,"o":"m 225 833 l 150 922 b -12 714 117 844 78 776 l -6 700 b 225 833 96 719 171 772 z "},"˘":{"ha":340,"x_min":0,"x_max":0,"o":"m 33 885 b 171 735 29 785 96 735 b 307 885 244 735 311 775 l 200 885 b 171 772 222 811 211 772 b 140 885 128 772 118 811 z "},"ˇ":{"ha":340,"x_min":0,"x_max":0,"o":"m 24 871 l 161 721 l 222 721 l 360 871 l 243 871 l 192 792 l 140 871 z "},"¸":{"ha":285,"x_min":0,"x_max":0,"o":"m 182 -74 b 150 -78 169 -74 158 -75 l 226 11 l 131 11 l 78 -107 b 125 -103 93 -104 110 -103 b 203 -175 175 -103 203 -129 b 156 -226 203 -194 193 -226 b 115 -192 133 -226 115 -212 b 126 -153 115 -178 119 -165 l 53 -140 b 44 -187 46 -157 44 -174 b 154 -278 44 -236 86 -278 b 272 -165 226 -278 272 -235 b 182 -74 272 -100 226 -74 z "},"ˆ":{"ha":285,"x_min":0,"x_max":0,"o":"m 24 749 l 140 749 l 192 828 l 243 749 l 360 749 l 222 899 l 161 899 z "},"¨":{"ha":486,"x_min":0,"x_max":0,"o":"m 128 726 l 226 828 l 128 926 l 28 828 z m 360 726 l 458 828 l 360 926 l 260 828 z "},"˙":{"ha":285,"x_min":0,"x_max":0,"o":"m 28 828 l 126 728 l 226 828 l 126 926 z "},"`":{"ha":285,"x_min":0,"x_max":0,"o":"m 4 833 b 235 700 58 772 133 719 l 242 714 b 79 922 151 776 113 844 z "},"˝":{"ha":313,"x_min":0,"x_max":0,"o":"m 138 897 l 38 897 l 38 711 l 61 711 z m 274 897 l 175 897 l 175 711 l 197 711 z "},"¯":{"ha":390,"x_min":0,"x_max":0,"o":"m -11 792 l -11 738 l 401 738 l 401 792 z "},"˛":{"ha":282,"x_min":0,"x_max":0,"o":"m 254 -239 l 214 -149 b 143 -179 192 -168 172 -179 b 90 -126 106 -179 90 -156 b 204 13 90 -76 144 -29 l 161 21 b 14 -156 83 -18 14 -82 b 151 -268 14 -224 75 -268 b 254 -239 190 -268 222 -257 z "},"˚":{"ha":285,"x_min":0,"x_max":0,"o":"m 104 739 b 185 819 149 739 185 775 b 104 899 185 864 149 899 b 24 819 60 899 24 864 b 104 739 24 775 60 739 z m 104 793 b 79 819 90 793 79 806 b 104 843 79 833 90 843 b 129 819 118 843 129 833 b 104 793 129 806 118 793 z "},"˜":{"ha":285,"x_min":0,"x_max":0,"o":"m 24 746 l 35 735 b 107 771 54 754 75 771 b 236 743 154 771 182 743 b 344 814 272 743 308 771 l 332 831 b 261 804 314 821 293 804 b 131 832 214 804 185 832 b 24 746 94 832 60 803 z "}}}
